M48
; DRILL file {KiCad 9.0.7} date 2026-05-14T16:38:40-0700
; FORMAT={-:-/ absolute / metric / decimal}
; #@! TF.CreationDate,2026-05-14T16:38:40-07:00
; #@! TF.GenerationSoftware,Kicad,Pcbnew,9.0.7
; #@! TF.FileFunction,Plated,1,2,PTH
FMAT,2
METRIC
; #@! TA.AperFunction,Plated,PTH,ViaDrill
T1C0.300
; #@! TA.AperFunction,Plated,PTH,ComponentDrill
T2C0.500
; #@! TA.AperFunction,Plated,PTH,ComponentDrill
T3C0.650
; #@! TA.AperFunction,Plated,PTH,ComponentDrill
T4C0.800
; #@! TA.AperFunction,Plated,PTH,ComponentDrill
T5C1.000
; #@! TA.AperFunction,Plated,PTH,ComponentDrill
T6C1.100
; #@! TA.AperFunction,Plated,PTH,ComponentDrill
T7C2.500
%
G90
G05
T1
X155.0Y-105.0
X157.0Y-110.0
X163.5Y-104.0
X166.5Y-99.0
X170.0Y-109.0
X170.0Y-111.0
X172.5Y-111.0
X172.5Y-116.0
X174.0Y-113.0
X175.5Y-85.0
X176.5Y-92.5
X179.0Y-87.5
X182.5Y-92.0
X185.0Y-99.0
X187.5Y-71.0
X187.5Y-83.5
X188.0Y-92.0
X189.0Y-102.5
X189.04Y-93.653
X189.5Y-79.5
X189.5Y-83.0
X189.5Y-86.5
X193.5Y-141.5
X203.801Y-84.699
X205.0Y-130.0
X206.5Y-73.5
X208.0Y-87.5
X209.5Y-85.0
X215.0Y-77.0
X216.0Y-65.5
X223.5Y-80.0
X227.0Y-100.0
X228.5Y-67.0
X230.0Y-78.5
X231.025Y-89.975
X232.0Y-86.5
X232.5Y-95.5
X233.5Y-93.5
X233.565Y-95.435
X234.0Y-115.0
X236.5Y-125.0
X243.099Y-116.0
X249.899Y-57.0
T2
X154.0Y-99.5
T3
X154.5Y-136.5
X188.5Y-53.0
X195.0Y-85.5
X197.5Y-53.0
X216.5Y-53.0
X225.5Y-72.0
X246.0Y-101.0
X246.0Y-109.5
X246.0Y-120.0
X246.0Y-129.5
T4
X156.5Y-86.0
X156.5Y-88.54
X156.5Y-91.08
X170.0Y-142.5
X172.54Y-142.5
X175.08Y-142.5
X202.46Y-139.5
X205.0Y-139.5
X207.54Y-139.5
X228.5Y-143.5
X231.04Y-143.5
X233.58Y-143.5
T5
X218.5Y-85.0
X221.04Y-85.0
T6
X198.0Y-61.5
X198.0Y-64.04
X198.0Y-66.58
T7
X154.5Y-145.0
X155.0Y-55.0
X246.0Y-54.5
X246.5Y-145.0
T4
G00X161.55Y-66.8
M15
G01X161.55Y-69.0
M16
G05
G00X163.25Y-72.7
M15
G01X165.45Y-72.7
M16
G05
G00X167.35Y-66.6
M15
G01X167.35Y-69.2
M16
G05
M30
