%TF.GenerationSoftware,KiCad,Pcbnew,9.0.7*%
%TF.CreationDate,2026-05-14T16:38:34-07:00*%
%TF.ProjectId,Elab_may5th,456c6162-5f6d-4617-9935-74682e6b6963,rev?*%
%TF.SameCoordinates,Original*%
%TF.FileFunction,Soldermask,Top*%
%TF.FilePolarity,Negative*%
%FSLAX46Y46*%
G04 Gerber Fmt 4.6, Leading zero omitted, Abs format (unit mm)*
G04 Created by KiCad (PCBNEW 9.0.7) date 2026-05-14 16:38:34*
%MOMM*%
%LPD*%
G01*
G04 APERTURE LIST*
G04 Aperture macros list*
%AMRoundRect*
0 Rectangle with rounded corners*
0 $1 Rounding radius*
0 $2 $3 $4 $5 $6 $7 $8 $9 X,Y pos of 4 corners*
0 Add a 4 corners polygon primitive as box body*
4,1,4,$2,$3,$4,$5,$6,$7,$8,$9,$2,$3,0*
0 Add four circle primitives for the rounded corners*
1,1,$1+$1,$2,$3*
1,1,$1+$1,$4,$5*
1,1,$1+$1,$6,$7*
1,1,$1+$1,$8,$9*
0 Add four rect primitives between the rounded corners*
20,1,$1+$1,$2,$3,$4,$5,0*
20,1,$1+$1,$4,$5,$6,$7,0*
20,1,$1+$1,$6,$7,$8,$9,0*
20,1,$1+$1,$8,$9,$2,$3,0*%
G04 Aperture macros list end*
%ADD10RoundRect,0.250000X-0.350000X-0.450000X0.350000X-0.450000X0.350000X0.450000X-0.350000X0.450000X0*%
%ADD11RoundRect,0.250000X-0.337500X-0.475000X0.337500X-0.475000X0.337500X0.475000X-0.337500X0.475000X0*%
%ADD12RoundRect,0.250001X0.944999X-0.872499X0.944999X0.872499X-0.944999X0.872499X-0.944999X-0.872499X0*%
%ADD13RoundRect,0.150000X0.150000X-0.587500X0.150000X0.587500X-0.150000X0.587500X-0.150000X-0.587500X0*%
%ADD14RoundRect,0.250001X-0.462499X-0.624999X0.462499X-0.624999X0.462499X0.624999X-0.462499X0.624999X0*%
%ADD15R,1.800000X4.400000*%
%ADD16O,1.800000X4.000000*%
%ADD17O,4.000000X1.800000*%
%ADD18R,1.700000X1.700000*%
%ADD19C,1.700000*%
%ADD20RoundRect,0.250001X-0.872499X-0.944999X0.872499X-0.944999X0.872499X0.944999X-0.872499X0.944999X0*%
%ADD21R,1.000000X1.000000*%
%ADD22C,5.000000*%
%ADD23RoundRect,0.250000X0.475000X-0.337500X0.475000X0.337500X-0.475000X0.337500X-0.475000X-0.337500X0*%
%ADD24RoundRect,0.250000X-0.300000X-0.300000X0.300000X-0.300000X0.300000X0.300000X-0.300000X0.300000X0*%
%ADD25C,1.440000*%
%ADD26R,2.000000X1.905000*%
%ADD27O,2.000000X1.905000*%
%ADD28R,0.850000X0.850000*%
%ADD29RoundRect,0.150000X0.150000X-0.825000X0.150000X0.825000X-0.150000X0.825000X-0.150000X-0.825000X0*%
%ADD30RoundRect,0.250000X0.450000X-0.350000X0.450000X0.350000X-0.450000X0.350000X-0.450000X-0.350000X0*%
G04 APERTURE END LIST*
D10*
%TO.C,R7*%
X186500000Y-105000000D03*
X188500000Y-105000000D03*
%TD*%
D11*
%TO.C,C10*%
X220000000Y-80000000D03*
X222075000Y-80000000D03*
%TD*%
D12*
%TO.C,C18*%
X245500000Y-67000000D03*
X245500000Y-61885000D03*
%TD*%
D13*
%TO.C,Q1*%
X178550000Y-92375000D03*
X180450000Y-92375000D03*
X179500000Y-90500000D03*
%TD*%
D14*
%TO.C,-5V_LED1*%
X243500000Y-72500000D03*
X246475000Y-72500000D03*
%TD*%
D15*
%TO.C,J1*%
X167350000Y-67900000D03*
D16*
X161550000Y-67900000D03*
D17*
X164350000Y-72700000D03*
%TD*%
D18*
%TO.C,JP1*%
X218500000Y-85000000D03*
D19*
X221040000Y-85000000D03*
%TD*%
D11*
%TO.C,C3*%
X173500000Y-83000000D03*
X175575000Y-83000000D03*
%TD*%
D20*
%TO.C,C17*%
X230000000Y-75000000D03*
X235115000Y-75000000D03*
%TD*%
D11*
%TO.C,C6*%
X153000000Y-108500000D03*
X155075000Y-108500000D03*
%TD*%
%TO.C,C7*%
X234000000Y-122500000D03*
X236075000Y-122500000D03*
%TD*%
D14*
%TO.C,+15V_LED1*%
X176000000Y-55000000D03*
X178975000Y-55000000D03*
%TD*%
D21*
%TO.C,GND_2*%
X246000000Y-109500000D03*
%TD*%
D22*
%TO.C,H3*%
X154500000Y-145000000D03*
%TD*%
D10*
%TO.C,R8*%
X187500000Y-86500000D03*
X189500000Y-86500000D03*
%TD*%
%TO.C,R5*%
X153000000Y-114000000D03*
X155000000Y-114000000D03*
%TD*%
D12*
%TO.C,C13*%
X206500000Y-73557500D03*
X206500000Y-68442500D03*
%TD*%
D23*
%TO.C,C19*%
X227500000Y-64575000D03*
X227500000Y-62500000D03*
%TD*%
D11*
%TO.C,C8*%
X153000000Y-128000000D03*
X155075000Y-128000000D03*
%TD*%
D10*
%TO.C,R17*%
X221000000Y-59500000D03*
X223000000Y-59500000D03*
%TD*%
%TO.C,R4*%
X234000000Y-118000000D03*
X236000000Y-118000000D03*
%TD*%
D24*
%TO.C,D2*%
X236600000Y-103500000D03*
X239400000Y-103500000D03*
%TD*%
D21*
%TO.C,+5V1*%
X216500000Y-53000000D03*
%TD*%
D25*
%TO.C,Gain_Adj2*%
X175080000Y-142500000D03*
X172540000Y-142500000D03*
X170000000Y-142500000D03*
%TD*%
D10*
%TO.C,R14*%
X173000000Y-68050000D03*
X175000000Y-68050000D03*
%TD*%
D11*
%TO.C,C20*%
X244500000Y-114500000D03*
X246575000Y-114500000D03*
%TD*%
D10*
%TO.C,R15*%
X163000000Y-57000000D03*
X165000000Y-57000000D03*
%TD*%
D21*
%TO.C,GND_4*%
X246000000Y-129500000D03*
%TD*%
D26*
%TO.C,U3*%
X198000000Y-66580000D03*
D27*
X198000000Y-64040000D03*
X198000000Y-61500000D03*
%TD*%
D10*
%TO.C,R3*%
X191460000Y-141500000D03*
X193460000Y-141500000D03*
%TD*%
D11*
%TO.C,C9*%
X211000000Y-85000000D03*
X213075000Y-85000000D03*
%TD*%
D10*
%TO.C,R1*%
X212960000Y-141500000D03*
X214960000Y-141500000D03*
%TD*%
D11*
%TO.C,C5*%
X186500000Y-109000000D03*
X188575000Y-109000000D03*
%TD*%
D28*
%TO.C,Offset_Test1*%
X154000000Y-99500000D03*
%TD*%
D21*
%TO.C,-5V1*%
X246000000Y-120000000D03*
%TD*%
D12*
%TO.C,C2*%
X166500000Y-104115000D03*
X166500000Y-99000000D03*
%TD*%
D10*
%TO.C,R20*%
X244500000Y-83500000D03*
X246500000Y-83500000D03*
%TD*%
%TO.C,R13*%
X238500000Y-109000000D03*
X240500000Y-109000000D03*
%TD*%
D14*
%TO.C,Signal_LED1*%
X186500000Y-79500000D03*
X189475000Y-79500000D03*
%TD*%
D22*
%TO.C,H1*%
X155000000Y-55000000D03*
%TD*%
D10*
%TO.C,R12*%
X211000000Y-90500000D03*
X213000000Y-90500000D03*
%TD*%
%TO.C,R21*%
X244500000Y-78000000D03*
X246500000Y-78000000D03*
%TD*%
D29*
%TO.C,U1*%
X170000000Y-115950000D03*
X171270000Y-115950000D03*
X172540000Y-115950000D03*
X173810000Y-115950000D03*
X173810000Y-111000000D03*
X172540000Y-111000000D03*
X171270000Y-111000000D03*
X170000000Y-111000000D03*
%TD*%
D11*
%TO.C,C4*%
X170000000Y-75500000D03*
X172075000Y-75500000D03*
%TD*%
D25*
%TO.C,Gain_Adj1*%
X233580000Y-143500000D03*
X231040000Y-143500000D03*
X228500000Y-143500000D03*
%TD*%
D21*
%TO.C,+15V1*%
X197500000Y-53000000D03*
%TD*%
D10*
%TO.C,R9*%
X153000000Y-123000000D03*
X155000000Y-123000000D03*
%TD*%
D21*
%TO.C,Signal1*%
X195000000Y-85500000D03*
%TD*%
%TO.C,Signal_Test2*%
X246000000Y-101000000D03*
%TD*%
D12*
%TO.C,C12*%
X180000000Y-68115000D03*
X180000000Y-63000000D03*
%TD*%
D30*
%TO.C,R6*%
X153000000Y-80500000D03*
X153000000Y-78500000D03*
%TD*%
D10*
%TO.C,R10*%
X198500000Y-95500000D03*
X200500000Y-95500000D03*
%TD*%
%TO.C,R11*%
X225000000Y-100000000D03*
X227000000Y-100000000D03*
%TD*%
D11*
%TO.C,C14*%
X197462500Y-79500000D03*
X199537500Y-79500000D03*
%TD*%
D10*
%TO.C,R19*%
X229000000Y-53000000D03*
X231000000Y-53000000D03*
%TD*%
D21*
%TO.C,Signal_Test1*%
X225500000Y-72000000D03*
%TD*%
D30*
%TO.C,R16*%
X213500000Y-77000000D03*
X213500000Y-75000000D03*
%TD*%
D23*
%TO.C,C15*%
X213500000Y-72075000D03*
X213500000Y-70000000D03*
%TD*%
%TO.C,C11*%
X190000000Y-73075000D03*
X190000000Y-71000000D03*
%TD*%
D29*
%TO.C,U2*%
X186500000Y-98950000D03*
X187770000Y-98950000D03*
X189040000Y-98950000D03*
X190310000Y-98950000D03*
X190310000Y-94000000D03*
X189040000Y-94000000D03*
X187770000Y-94000000D03*
X186500000Y-94000000D03*
%TD*%
D22*
%TO.C,H4*%
X246500000Y-145000000D03*
%TD*%
D12*
%TO.C,C16*%
X219000000Y-70615000D03*
X219000000Y-65500000D03*
%TD*%
D25*
%TO.C,Freq_Adj1*%
X156500000Y-86000000D03*
X156500000Y-88540000D03*
X156500000Y-91080000D03*
%TD*%
D10*
%TO.C,R2*%
X200000000Y-85500000D03*
X202000000Y-85500000D03*
%TD*%
D29*
%TO.C,U4*%
X231025000Y-93475000D03*
X232295000Y-93475000D03*
X233565000Y-93475000D03*
X234835000Y-93475000D03*
X234835000Y-88525000D03*
X233565000Y-88525000D03*
X232295000Y-88525000D03*
X231025000Y-88525000D03*
%TD*%
D21*
%TO.C,GND_1*%
X188500000Y-53000000D03*
%TD*%
%TO.C,GND_3*%
X154500000Y-136500000D03*
%TD*%
D10*
%TO.C,R18*%
X222500000Y-53000000D03*
X224500000Y-53000000D03*
%TD*%
D22*
%TO.C,H2*%
X246000000Y-54500000D03*
%TD*%
D14*
%TO.C,+5V_LED1*%
X211000000Y-65500000D03*
X213975000Y-65500000D03*
%TD*%
D25*
%TO.C,Offset_Adj1*%
X207540000Y-139500000D03*
X205000000Y-139500000D03*
X202460000Y-139500000D03*
%TD*%
M02*
