%TF.GenerationSoftware,KiCad,Pcbnew,9.0.7*%
%TF.CreationDate,2026-05-14T16:38:34-07:00*%
%TF.ProjectId,Elab_may5th,456c6162-5f6d-4617-9935-74682e6b6963,rev?*%
%TF.SameCoordinates,Original*%
%TF.FileFunction,Copper,L2,Bot*%
%TF.FilePolarity,Positive*%
%FSLAX46Y46*%
G04 Gerber Fmt 4.6, Leading zero omitted, Abs format (unit mm)*
G04 Created by KiCad (PCBNEW 9.0.7) date 2026-05-14 16:38:34*
%MOMM*%
%LPD*%
G01*
G04 APERTURE LIST*
%TA.AperFunction,ComponentPad*%
%ADD10R,1.800000X4.400000*%
%TD*%
%TA.AperFunction,ComponentPad*%
%ADD11O,1.800000X4.000000*%
%TD*%
%TA.AperFunction,ComponentPad*%
%ADD12O,4.000000X1.800000*%
%TD*%
%TA.AperFunction,ComponentPad*%
%ADD13R,1.700000X1.700000*%
%TD*%
%TA.AperFunction,ComponentPad*%
%ADD14C,1.700000*%
%TD*%
%TA.AperFunction,ComponentPad*%
%ADD15R,1.000000X1.000000*%
%TD*%
%TA.AperFunction,ComponentPad*%
%ADD16C,5.000000*%
%TD*%
%TA.AperFunction,ComponentPad*%
%ADD17C,1.440000*%
%TD*%
%TA.AperFunction,ComponentPad*%
%ADD18R,2.000000X1.905000*%
%TD*%
%TA.AperFunction,ComponentPad*%
%ADD19O,2.000000X1.905000*%
%TD*%
%TA.AperFunction,ComponentPad*%
%ADD20R,0.850000X0.850000*%
%TD*%
%TA.AperFunction,ViaPad*%
%ADD21C,0.600000*%
%TD*%
%TA.AperFunction,Conductor*%
%ADD22C,0.200000*%
%TD*%
G04 APERTURE END LIST*
D10*
%TO.P,J1,1*%
%TO.N,Net-(J1-Pad1)*%
X167350000Y-67900000D03*
D11*
%TO.P,J1,2*%
%TO.N,GND*%
X161550000Y-67900000D03*
D12*
%TO.P,J1,3*%
X164350000Y-72700000D03*
%TD*%
D13*
%TO.P,JP1,1,A*%
%TO.N,Net-(JP1-A)*%
X218500000Y-85000000D03*
D14*
%TO.P,JP1,2,B*%
%TO.N,Net-(D2-K)*%
X221040000Y-85000000D03*
%TD*%
D15*
%TO.P,GND_2,1,1*%
%TO.N,GND*%
X246000000Y-109500000D03*
%TD*%
D16*
%TO.P,H3,1*%
%TO.N,N/C*%
X154500000Y-145000000D03*
%TD*%
D15*
%TO.P,+5V1,1,1*%
%TO.N,5V*%
X216500000Y-53000000D03*
%TD*%
D17*
%TO.P,Gain_Adj2,1,1*%
%TO.N,Net-(Gain_Adj2-Pad1)*%
X175080000Y-142500000D03*
%TO.P,Gain_Adj2,2,2*%
X172540000Y-142500000D03*
%TO.P,Gain_Adj2,3,3*%
%TO.N,Net-(U2B-IN-)*%
X170000000Y-142500000D03*
%TD*%
D15*
%TO.P,GND_4,1,1*%
%TO.N,GND*%
X246000000Y-129500000D03*
%TD*%
D18*
%TO.P,U3,1,VI*%
%TO.N,Net-(+15V_LED1-A)*%
X198000000Y-66580000D03*
D19*
%TO.P,U3,2,GND*%
%TO.N,GND*%
X198000000Y-64040000D03*
%TO.P,U3,3,VO*%
%TO.N,Net-(U3-VO)*%
X198000000Y-61500000D03*
%TD*%
D20*
%TO.P,Offset_Test1,1,1*%
%TO.N,Net-(U2A-OUT1)*%
X154000000Y-99500000D03*
%TD*%
D15*
%TO.P,-5V1,1,1*%
%TO.N,-5V*%
X246000000Y-120000000D03*
%TD*%
D16*
%TO.P,H1,1*%
%TO.N,N/C*%
X155000000Y-55000000D03*
%TD*%
D17*
%TO.P,Gain_Adj1,1,1*%
%TO.N,Net-(Gain_Adj1-Pad1)*%
X233580000Y-143500000D03*
%TO.P,Gain_Adj1,2,2*%
X231040000Y-143500000D03*
%TO.P,Gain_Adj1,3,3*%
%TO.N,Net-(U2A-IN-)*%
X228500000Y-143500000D03*
%TD*%
D15*
%TO.P,+15V1,1,1*%
%TO.N,Net-(+15V_LED1-A)*%
X197500000Y-53000000D03*
%TD*%
%TO.P,Signal1,1,1*%
%TO.N,Net-(Q1-G)*%
X195000000Y-85500000D03*
%TD*%
%TO.P,Signal_Test2,1,1*%
%TO.N,Net-(D2-K)*%
X246000000Y-101000000D03*
%TD*%
%TO.P,Signal_Test1,1,1*%
%TO.N,Net-(JP1-A)*%
X225500000Y-72000000D03*
%TD*%
D16*
%TO.P,H4,1*%
%TO.N,N/C*%
X246500000Y-145000000D03*
%TD*%
D17*
%TO.P,Freq_Adj1,1,1*%
%TO.N,5V*%
X156500000Y-86000000D03*
%TO.P,Freq_Adj1,2,2*%
%TO.N,Net-(U1-DISCH)*%
X156500000Y-88540000D03*
%TO.P,Freq_Adj1,3,3*%
X156500000Y-91080000D03*
%TD*%
D15*
%TO.P,GND_1,1,1*%
%TO.N,GND*%
X188500000Y-53000000D03*
%TD*%
%TO.P,GND_3,1,1*%
%TO.N,GND*%
X154500000Y-136500000D03*
%TD*%
D16*
%TO.P,H2,1*%
%TO.N,N/C*%
X246000000Y-54500000D03*
%TD*%
D17*
%TO.P,Offset_Adj1,1,1*%
%TO.N,Net-(Offset_Adj1-Pad1)*%
X207540000Y-139500000D03*
%TO.P,Offset_Adj1,2,2*%
%TO.N,Net-(U2A-IN+)*%
X205000000Y-139500000D03*
%TO.P,Offset_Adj1,3,3*%
%TO.N,Net-(Offset_Adj1-Pad3)*%
X202460000Y-139500000D03*
%TD*%
D21*
%TO.N,5V*%
X216000000Y-65500000D03*
X187500000Y-83500000D03*
X170000000Y-109000000D03*
X174000000Y-113000000D03*
X203801000Y-84699000D03*
X170000000Y-111000000D03*
%TO.N,-5V*%
X234000000Y-115000000D03*
X243099000Y-116000000D03*
X193500000Y-141500000D03*
%TO.N,GND*%
X227000000Y-100000000D03*
X175500000Y-85000000D03*
X187500000Y-71000000D03*
X231025000Y-89975000D03*
X233500000Y-93500000D03*
X155000000Y-105000000D03*
X166500000Y-99000000D03*
X233565000Y-95435000D03*
X236500000Y-125000000D03*
X223500000Y-80000000D03*
X228500000Y-67000000D03*
%TO.N,Net-(U2A-IN+)*%
X205000000Y-130000000D03*
X189000000Y-102500000D03*
%TO.N,Net-(U1-THRES)*%
X163500000Y-104000000D03*
X172500000Y-111000000D03*
%TO.N,Net-(U2A-OUT1)*%
X185000000Y-99000000D03*
%TO.N,Net-(U2A-V+)*%
X182500000Y-92000000D03*
X157000000Y-110000000D03*
%TO.N,Net-(U2B-IN-)*%
X209500000Y-85000000D03*
X189040000Y-93653032D03*
%TO.N,Net-(JP1-A)*%
X208000000Y-87500000D03*
X188000000Y-92000000D03*
%TO.N,Net-(U3-VO)*%
X215000000Y-77000000D03*
X206500000Y-73500000D03*
%TO.N,Net-(U4-CAP+)*%
X232500000Y-95500000D03*
X230000000Y-78500000D03*
%TO.N,Net-(Q1-S)*%
X189500000Y-83000000D03*
X189500000Y-79500000D03*
%TO.N,Net-(Q1-G)*%
X189500000Y-86500000D03*
X176500000Y-92500000D03*
X172500000Y-116000000D03*
X179000000Y-87500000D03*
%TO.N,Net-(U4-FB)*%
X249899000Y-57000000D03*
X232000000Y-86500000D03*
%TD*%
D22*
%TO.N,5V*%
X216500000Y-65000000D02*
X216500000Y-53000000D01*
X216000000Y-65500000D02*
X216500000Y-65000000D01*
X170000000Y-109500000D02*
X173500000Y-113000000D01*
X170000000Y-109000000D02*
X170000000Y-109500000D01*
X170000000Y-109000000D02*
X170000000Y-111000000D01*
X203801000Y-84699000D02*
X188699000Y-84699000D01*
X173500000Y-113000000D02*
X174000000Y-113000000D01*
X188699000Y-84699000D02*
X187500000Y-83500000D01*
%TO.N,-5V*%
X242000000Y-115000000D02*
X243000000Y-116000000D01*
X234000000Y-115000000D02*
X242000000Y-115000000D01*
X235500000Y-148899000D02*
X193500000Y-148899000D01*
X235500000Y-116500000D02*
X235500000Y-148899000D01*
X234000000Y-115000000D02*
X235500000Y-116500000D01*
X193500000Y-148899000D02*
X193500000Y-141500000D01*
%TO.N,GND*%
X187500000Y-71000000D02*
X187500000Y-64500000D01*
X241000000Y-129500000D02*
X246000000Y-129500000D01*
X229000000Y-100000000D02*
X227000000Y-100000000D01*
X223500000Y-80000000D02*
X228901000Y-74599000D01*
X233565000Y-95435000D02*
X229000000Y-100000000D01*
X236500000Y-125000000D02*
X241000000Y-129500000D01*
X233500000Y-91500000D02*
X233500000Y-93500000D01*
X231025000Y-89975000D02*
X231975000Y-89975000D01*
X231975000Y-89975000D02*
X233500000Y-91500000D01*
X175500000Y-85000000D02*
X175500000Y-90000000D01*
X155000000Y-105000000D02*
X161000000Y-99000000D01*
X228901000Y-74599000D02*
X228901000Y-67401000D01*
X161000000Y-99000000D02*
X166500000Y-99000000D01*
X231025000Y-75457900D02*
X231025000Y-89975000D01*
X187960000Y-64040000D02*
X187500000Y-64500000D01*
X228901000Y-67401000D02*
X228500000Y-67000000D01*
X198000000Y-64040000D02*
X187960000Y-64040000D01*
X230166100Y-74599000D02*
X231025000Y-75457900D01*
X228901000Y-74599000D02*
X230166100Y-74599000D01*
X175500000Y-90000000D02*
X166500000Y-99000000D01*
%TO.N,Net-(U2A-IN+)*%
X205000000Y-118500000D02*
X205000000Y-130000000D01*
X189000000Y-102500000D02*
X205000000Y-118500000D01*
%TO.N,Net-(U1-THRES)*%
X167000000Y-107500000D02*
X172500000Y-107500000D01*
X163500000Y-104000000D02*
X167000000Y-107500000D01*
X172500000Y-107500000D02*
X172500000Y-111000000D01*
%TO.N,Net-(U2A-OUT1)*%
X175748943Y-84399000D02*
X169101000Y-84399000D01*
X176101000Y-89966100D02*
X176101000Y-84751057D01*
X186901000Y-93833900D02*
X183033200Y-89966100D01*
X169101000Y-84399000D02*
X154000000Y-99500000D01*
X185000000Y-99000000D02*
X186901000Y-97099000D01*
X176101000Y-84751057D02*
X175748943Y-84399000D01*
X183033200Y-89966100D02*
X176101000Y-89966100D01*
X186901000Y-97099000D02*
X186901000Y-93833900D01*
%TO.N,Net-(U2A-V+)*%
X157000000Y-110000000D02*
X157000000Y-109650057D01*
X157000000Y-109650057D02*
X174751057Y-91899000D01*
X174751057Y-91899000D02*
X182399000Y-91899000D01*
X182399000Y-91899000D02*
X182500000Y-92000000D01*
%TO.N,Net-(U2B-IN-)*%
X189000000Y-93613032D02*
X189040000Y-93653032D01*
X205000000Y-89500000D02*
X189000000Y-89500000D01*
X209500000Y-85000000D02*
X205000000Y-89500000D01*
X189000000Y-89500000D02*
X189000000Y-93613032D01*
%TO.N,Net-(JP1-A)*%
X188833900Y-94401000D02*
X201099000Y-94401000D01*
X201099000Y-94401000D02*
X208000000Y-87500000D01*
X188000000Y-93567100D02*
X188833900Y-94401000D01*
X188000000Y-92000000D02*
X188000000Y-93567100D01*
%TO.N,Net-(U3-VO)*%
X215000000Y-77000000D02*
X211500000Y-73500000D01*
X211500000Y-73500000D02*
X206500000Y-73500000D01*
%TO.N,Net-(U4-CAP+)*%
X232500000Y-95500000D02*
X230000000Y-93000000D01*
X230000000Y-93000000D02*
X230000000Y-78500000D01*
%TO.N,Net-(Q1-S)*%
X189500000Y-83000000D02*
X189500000Y-79500000D01*
%TO.N,Net-(Q1-G)*%
X174166100Y-116401000D02*
X172901000Y-116401000D01*
X176500000Y-114067100D02*
X174166100Y-116401000D01*
X188500000Y-87500000D02*
X189500000Y-86500000D01*
X172901000Y-116401000D02*
X172500000Y-116000000D01*
X179000000Y-87500000D02*
X188500000Y-87500000D01*
X176500000Y-92500000D02*
X176500000Y-114067100D01*
%TO.N,Net-(U4-FB)*%
X232000000Y-86500000D02*
X232000000Y-86000000D01*
X249899000Y-68101000D02*
X249899000Y-57000000D01*
X232000000Y-86000000D02*
X249899000Y-68101000D01*
%TD*%
%TA.AperFunction,Conductor*%
%TO.N,GND*%
G36*
X250442539Y-50020185D02*
G01*
X250488294Y-50072989D01*
X250499500Y-50124500D01*
X250499500Y-56206499D01*
X250479815Y-56273538D01*
X250427011Y-56319293D01*
X250357853Y-56329237D01*
X250306611Y-56309602D01*
X250278188Y-56290611D01*
X250278172Y-56290602D01*
X250132501Y-56230264D01*
X250132489Y-56230261D01*
X249977845Y-56199500D01*
X249977842Y-56199500D01*
X249820158Y-56199500D01*
X249820155Y-56199500D01*
X249665510Y-56230261D01*
X249665498Y-56230264D01*
X249519827Y-56290602D01*
X249519814Y-56290609D01*
X249388711Y-56378210D01*
X249388707Y-56378213D01*
X249277213Y-56489707D01*
X249277210Y-56489711D01*
X249189609Y-56620814D01*
X249189602Y-56620827D01*
X249129264Y-56766498D01*
X249129261Y-56766510D01*
X249098500Y-56921153D01*
X249098500Y-57078846D01*
X249129261Y-57233489D01*
X249129264Y-57233501D01*
X249189602Y-57379172D01*
X249189609Y-57379185D01*
X249277602Y-57510874D01*
X249298480Y-57577551D01*
X249298500Y-57579765D01*
X249298500Y-67800902D01*
X249278815Y-67867941D01*
X249262181Y-67888583D01*
X231519481Y-85631282D01*
X231519479Y-85631284D01*
X231491797Y-85679232D01*
X231480096Y-85699500D01*
X231440423Y-85768215D01*
X231422642Y-85834574D01*
X231399498Y-85920945D01*
X231398438Y-85929003D01*
X231396980Y-85928811D01*
X231379814Y-85987274D01*
X231378601Y-85989126D01*
X231290609Y-86120814D01*
X231290602Y-86120827D01*
X231230264Y-86266498D01*
X231230261Y-86266510D01*
X231199500Y-86421153D01*
X231199500Y-86578846D01*
X231230261Y-86733489D01*
X231230264Y-86733501D01*
X231290602Y-86879172D01*
X231290609Y-86879185D01*
X231378210Y-87010288D01*
X231378213Y-87010292D01*
X231489707Y-87121786D01*
X231489711Y-87121789D01*
X231620814Y-87209390D01*
X231620827Y-87209397D01*
X231758683Y-87266498D01*
X231766503Y-87269737D01*
X231921153Y-87300499D01*
X231921156Y-87300500D01*
X231921158Y-87300500D01*
X232078844Y-87300500D01*
X232078845Y-87300499D01*
X232233497Y-87269737D01*
X232379179Y-87209394D01*
X232510289Y-87121789D01*
X232621789Y-87010289D01*
X232709394Y-86879179D01*
X232769737Y-86733497D01*
X232800500Y-86578842D01*
X232800500Y-86421158D01*
X232800500Y-86421155D01*
X232800499Y-86421153D01*
X232775165Y-86293793D01*
X232769737Y-86266503D01*
X232763545Y-86251555D01*
X232746671Y-86210818D01*
X232739201Y-86141349D01*
X232770475Y-86078869D01*
X232773522Y-86075711D01*
X250287821Y-68561414D01*
X250349142Y-68527931D01*
X250418834Y-68532915D01*
X250474767Y-68574787D01*
X250499184Y-68640251D01*
X250499500Y-68649097D01*
X250499500Y-148875500D01*
X250479815Y-148942539D01*
X250427011Y-148988294D01*
X250375500Y-148999500D01*
X236224500Y-148999500D01*
X236157461Y-148979815D01*
X236111706Y-148927011D01*
X236100500Y-148875500D01*
X236100500Y-144831491D01*
X243499500Y-144831491D01*
X243499500Y-145168508D01*
X243537231Y-145503381D01*
X243537233Y-145503397D01*
X243612223Y-145831953D01*
X243612227Y-145831965D01*
X243723532Y-146150054D01*
X243869752Y-146453683D01*
X243869754Y-146453686D01*
X244049054Y-146739039D01*
X244259175Y-147002523D01*
X244497477Y-147240825D01*
X244760961Y-147450946D01*
X245046314Y-147630246D01*
X245349949Y-147776469D01*
X245588848Y-147860063D01*
X245668034Y-147887772D01*
X245668046Y-147887776D01*
X245996606Y-147962767D01*
X246331492Y-148000499D01*
X246331493Y-148000500D01*
X246331496Y-148000500D01*
X246668507Y-148000500D01*
X246668507Y-148000499D01*
X247003394Y-147962767D01*
X247331954Y-147887776D01*
X247650051Y-147776469D01*
X247953686Y-147630246D01*
X248239039Y-147450946D01*
X248502523Y-147240825D01*
X248740825Y-147002523D01*
X248950946Y-146739039D01*
X249130246Y-146453686D01*
X249276469Y-146150051D01*
X249387776Y-145831954D01*
X249462767Y-145503394D01*
X249500500Y-145168504D01*
X249500500Y-144831496D01*
X249462767Y-144496606D01*
X249387776Y-144168046D01*
X249276469Y-143849949D01*
X249130246Y-143546314D01*
X248950946Y-143260961D01*
X248740825Y-142997477D01*
X248502523Y-142759175D01*
X248239039Y-142549054D01*
X247953686Y-142369754D01*
X247953683Y-142369752D01*
X247650054Y-142223532D01*
X247331965Y-142112227D01*
X247331953Y-142112223D01*
X247003397Y-142037233D01*
X247003381Y-142037231D01*
X246668508Y-141999500D01*
X246668504Y-141999500D01*
X246331496Y-141999500D01*
X246331491Y-141999500D01*
X245996618Y-142037231D01*
X245996602Y-142037233D01*
X245668046Y-142112223D01*
X245668034Y-142112227D01*
X245349945Y-142223532D01*
X245046316Y-142369752D01*
X244760962Y-142549053D01*
X244497477Y-142759174D01*
X244259174Y-142997477D01*
X244049053Y-143260962D01*
X243869752Y-143546316D01*
X243723532Y-143849945D01*
X243612227Y-144168034D01*
X243612223Y-144168046D01*
X243537233Y-144496602D01*
X243537231Y-144496618D01*
X243499500Y-144831491D01*
X236100500Y-144831491D01*
X236100500Y-130047844D01*
X245000000Y-130047844D01*
X245006401Y-130107372D01*
X245006403Y-130107379D01*
X245056645Y-130242086D01*
X245056649Y-130242093D01*
X245142809Y-130357187D01*
X245142812Y-130357190D01*
X245257906Y-130443350D01*
X245257913Y-130443354D01*
X245392620Y-130493596D01*
X245392627Y-130493598D01*
X245452155Y-130499999D01*
X245452172Y-130500000D01*
X245750000Y-130500000D01*
X246250000Y-130500000D01*
X246547828Y-130500000D01*
X246547844Y-130499999D01*
X246607372Y-130493598D01*
X246607379Y-130493596D01*
X246742086Y-130443354D01*
X246742093Y-130443350D01*
X246857187Y-130357190D01*
X246857190Y-130357187D01*
X246943350Y-130242093D01*
X246943354Y-130242086D01*
X246993596Y-130107379D01*
X246993598Y-130107372D01*
X246999999Y-130047844D01*
X247000000Y-130047827D01*
X247000000Y-129750000D01*
X246250000Y-129750000D01*
X246250000Y-130500000D01*
X245750000Y-130500000D01*
X245750000Y-129750000D01*
X245000000Y-129750000D01*
X245000000Y-130047844D01*
X236100500Y-130047844D01*
X236100500Y-129457213D01*
X245675000Y-129457213D01*
X245675000Y-129542787D01*
X245697149Y-129625445D01*
X245739936Y-129699554D01*
X245800446Y-129760064D01*
X245874555Y-129802851D01*
X245957213Y-129825000D01*
X246042787Y-129825000D01*
X246125445Y-129802851D01*
X246199554Y-129760064D01*
X246260064Y-129699554D01*
X246302851Y-129625445D01*
X246325000Y-129542787D01*
X246325000Y-129457213D01*
X246302851Y-129374555D01*
X246260064Y-129300446D01*
X246209618Y-129250000D01*
X246250000Y-129250000D01*
X247000000Y-129250000D01*
X247000000Y-128952172D01*
X246999999Y-128952155D01*
X246993598Y-128892627D01*
X246993596Y-128892620D01*
X246943354Y-128757913D01*
X246943350Y-128757906D01*
X246857190Y-128642812D01*
X246857187Y-128642809D01*
X246742093Y-128556649D01*
X246742086Y-128556645D01*
X246607379Y-128506403D01*
X246607372Y-128506401D01*
X246547844Y-128500000D01*
X246250000Y-128500000D01*
X246250000Y-129250000D01*
X246209618Y-129250000D01*
X246199554Y-129239936D01*
X246125445Y-129197149D01*
X246042787Y-129175000D01*
X245957213Y-129175000D01*
X245874555Y-129197149D01*
X245800446Y-129239936D01*
X245739936Y-129300446D01*
X245697149Y-129374555D01*
X245675000Y-129457213D01*
X236100500Y-129457213D01*
X236100500Y-128952155D01*
X245000000Y-128952155D01*
X245000000Y-129250000D01*
X245750000Y-129250000D01*
X245750000Y-128500000D01*
X245452155Y-128500000D01*
X245392627Y-128506401D01*
X245392620Y-128506403D01*
X245257913Y-128556645D01*
X245257906Y-128556649D01*
X245142812Y-128642809D01*
X245142809Y-128642812D01*
X245056649Y-128757906D01*
X245056645Y-128757913D01*
X245006403Y-128892620D01*
X245006401Y-128892627D01*
X245000000Y-128952155D01*
X236100500Y-128952155D01*
X236100500Y-119452135D01*
X244999500Y-119452135D01*
X244999500Y-120547870D01*
X244999501Y-120547876D01*
X245005908Y-120607483D01*
X245056202Y-120742328D01*
X245056206Y-120742335D01*
X245142452Y-120857544D01*
X245142455Y-120857547D01*
X245257664Y-120943793D01*
X245257671Y-120943797D01*
X245392517Y-120994091D01*
X245392516Y-120994091D01*
X245399444Y-120994835D01*
X245452127Y-121000500D01*
X246547872Y-121000499D01*
X246607483Y-120994091D01*
X246742331Y-120943796D01*
X246857546Y-120857546D01*
X246943796Y-120742331D01*
X246994091Y-120607483D01*
X247000500Y-120547873D01*
X247000499Y-119452128D01*
X246994091Y-119392517D01*
X246943796Y-119257669D01*
X246943795Y-119257668D01*
X246943793Y-119257664D01*
X246857547Y-119142455D01*
X246857544Y-119142452D01*
X246742335Y-119056206D01*
X246742328Y-119056202D01*
X246607482Y-119005908D01*
X246607483Y-119005908D01*
X246547883Y-118999501D01*
X246547881Y-118999500D01*
X246547873Y-118999500D01*
X246547864Y-118999500D01*
X245452129Y-118999500D01*
X245452123Y-118999501D01*
X245392516Y-119005908D01*
X245257671Y-119056202D01*
X245257664Y-119056206D01*
X245142455Y-119142452D01*
X245142452Y-119142455D01*
X245056206Y-119257664D01*
X245056202Y-119257671D01*
X245005908Y-119392517D01*
X244999501Y-119452116D01*
X244999501Y-119452123D01*
X244999500Y-119452135D01*
X236100500Y-119452135D01*
X236100500Y-116420945D01*
X236100500Y-116420943D01*
X236059577Y-116268216D01*
X236059573Y-116268209D01*
X235980524Y-116131290D01*
X235980521Y-116131286D01*
X235980520Y-116131284D01*
X235868716Y-116019480D01*
X235868715Y-116019479D01*
X235864385Y-116015149D01*
X235864374Y-116015139D01*
X235661416Y-115812181D01*
X235627931Y-115750858D01*
X235632915Y-115681166D01*
X235674787Y-115625233D01*
X235740251Y-115600816D01*
X235749097Y-115600500D01*
X241699903Y-115600500D01*
X241766942Y-115620185D01*
X241787584Y-115636819D01*
X242289008Y-116138244D01*
X242322493Y-116199567D01*
X242322944Y-116201733D01*
X242329261Y-116233491D01*
X242329263Y-116233499D01*
X242389602Y-116379172D01*
X242389609Y-116379185D01*
X242477210Y-116510288D01*
X242477213Y-116510292D01*
X242588707Y-116621786D01*
X242588711Y-116621789D01*
X242719814Y-116709390D01*
X242719827Y-116709397D01*
X242814799Y-116748735D01*
X242865503Y-116769737D01*
X243018132Y-116800097D01*
X243020153Y-116800499D01*
X243020156Y-116800500D01*
X243020158Y-116800500D01*
X243177844Y-116800500D01*
X243177845Y-116800499D01*
X243332497Y-116769737D01*
X243478179Y-116709394D01*
X243609289Y-116621789D01*
X243720789Y-116510289D01*
X243808394Y-116379179D01*
X243868737Y-116233497D01*
X243899500Y-116078842D01*
X243899500Y-115921158D01*
X243899500Y-115921155D01*
X243899499Y-115921153D01*
X243875499Y-115800500D01*
X243868737Y-115766503D01*
X243815021Y-115636819D01*
X243808397Y-115620827D01*
X243808390Y-115620814D01*
X243720789Y-115489711D01*
X243720786Y-115489707D01*
X243609292Y-115378213D01*
X243609288Y-115378210D01*
X243478185Y-115290609D01*
X243478172Y-115290602D01*
X243332501Y-115230264D01*
X243332489Y-115230261D01*
X243177845Y-115199500D01*
X243177842Y-115199500D01*
X243100098Y-115199500D01*
X243033059Y-115179815D01*
X243012417Y-115163181D01*
X242487590Y-114638355D01*
X242487588Y-114638352D01*
X242368717Y-114519481D01*
X242368716Y-114519480D01*
X242281904Y-114469360D01*
X242281904Y-114469359D01*
X242281900Y-114469358D01*
X242231785Y-114440423D01*
X242079057Y-114399499D01*
X241920943Y-114399499D01*
X241913347Y-114399499D01*
X241913331Y-114399500D01*
X234579766Y-114399500D01*
X234512727Y-114379815D01*
X234510875Y-114378602D01*
X234379185Y-114290609D01*
X234379172Y-114290602D01*
X234233501Y-114230264D01*
X234233489Y-114230261D01*
X234078845Y-114199500D01*
X234078842Y-114199500D01*
X233921158Y-114199500D01*
X233921155Y-114199500D01*
X233766510Y-114230261D01*
X233766498Y-114230264D01*
X233620827Y-114290602D01*
X233620814Y-114290609D01*
X233489711Y-114378210D01*
X233489707Y-114378213D01*
X233378213Y-114489707D01*
X233378210Y-114489711D01*
X233290609Y-114620814D01*
X233290602Y-114620827D01*
X233230264Y-114766498D01*
X233230261Y-114766510D01*
X233199500Y-114921153D01*
X233199500Y-115078846D01*
X233230261Y-115233489D01*
X233230264Y-115233501D01*
X233290602Y-115379172D01*
X233290609Y-115379185D01*
X233378210Y-115510288D01*
X233378213Y-115510292D01*
X233489707Y-115621786D01*
X233489711Y-115621789D01*
X233620814Y-115709390D01*
X233620827Y-115709397D01*
X233758683Y-115766498D01*
X233766503Y-115769737D01*
X233831147Y-115782595D01*
X233921849Y-115800638D01*
X233983760Y-115833023D01*
X233985339Y-115834574D01*
X234863181Y-116712416D01*
X234896666Y-116773739D01*
X234899500Y-116800097D01*
X234899500Y-142884784D01*
X234879815Y-142951823D01*
X234827011Y-142997578D01*
X234757853Y-143007522D01*
X234694297Y-142978497D01*
X234665016Y-142941080D01*
X234623866Y-142860320D01*
X234569724Y-142785801D01*
X234510945Y-142704898D01*
X234375102Y-142569055D01*
X234219681Y-142456135D01*
X234048506Y-142368916D01*
X233865802Y-142309553D01*
X233770928Y-142294526D01*
X233676055Y-142279500D01*
X233483945Y-142279500D01*
X233420696Y-142289517D01*
X233294197Y-142309553D01*
X233111493Y-142368916D01*
X232940318Y-142456135D01*
X232874346Y-142504067D01*
X232784898Y-142569055D01*
X232784896Y-142569057D01*
X232784895Y-142569057D01*
X232649057Y-142704895D01*
X232649057Y-142704896D01*
X232649055Y-142704898D01*
X232600560Y-142771645D01*
X232536135Y-142860318D01*
X232448916Y-143031493D01*
X232427931Y-143096081D01*
X232388494Y-143153756D01*
X232324135Y-143180955D01*
X232255289Y-143169041D01*
X232203813Y-143121797D01*
X232192069Y-143096081D01*
X232171083Y-143031493D01*
X232106080Y-142903919D01*
X232083865Y-142860319D01*
X231970945Y-142704898D01*
X231835102Y-142569055D01*
X231679681Y-142456135D01*
X231508506Y-142368916D01*
X231325802Y-142309553D01*
X231230928Y-142294526D01*
X231136055Y-142279500D01*
X230943945Y-142279500D01*
X230880696Y-142289517D01*
X230754197Y-142309553D01*
X230571493Y-142368916D01*
X230400318Y-142456135D01*
X230334346Y-142504067D01*
X230244898Y-142569055D01*
X230244896Y-142569057D01*
X230244895Y-142569057D01*
X230109057Y-142704895D01*
X230109057Y-142704896D01*
X230109055Y-142704898D01*
X230060560Y-142771645D01*
X229996135Y-142860318D01*
X229908916Y-143031493D01*
X229887931Y-143096081D01*
X229848494Y-143153756D01*
X229784135Y-143180955D01*
X229715289Y-143169041D01*
X229663813Y-143121797D01*
X229652069Y-143096081D01*
X229631083Y-143031493D01*
X229566080Y-142903919D01*
X229543865Y-142860319D01*
X229430945Y-142704898D01*
X229295102Y-142569055D01*
X229139681Y-142456135D01*
X228968506Y-142368916D01*
X228785802Y-142309553D01*
X228690928Y-142294526D01*
X228596055Y-142279500D01*
X228403945Y-142279500D01*
X228340696Y-142289517D01*
X228214197Y-142309553D01*
X228031493Y-142368916D01*
X227860318Y-142456135D01*
X227794346Y-142504067D01*
X227704898Y-142569055D01*
X227704896Y-142569057D01*
X227704895Y-142569057D01*
X227569057Y-142704895D01*
X227569057Y-142704896D01*
X227569055Y-142704898D01*
X227520560Y-142771645D01*
X227456135Y-142860318D01*
X227368916Y-143031493D01*
X227309553Y-143214197D01*
X227279500Y-143403945D01*
X227279500Y-143596054D01*
X227309553Y-143785802D01*
X227368916Y-143968506D01*
X227368918Y-143968509D01*
X227456135Y-144139681D01*
X227569055Y-144295102D01*
X227704898Y-144430945D01*
X227860319Y-144543865D01*
X228031491Y-144631082D01*
X228031493Y-144631083D01*
X228122845Y-144660764D01*
X228214199Y-144690447D01*
X228403945Y-144720500D01*
X228403946Y-144720500D01*
X228596054Y-144720500D01*
X228596055Y-144720500D01*
X228785801Y-144690447D01*
X228968509Y-144631082D01*
X229139681Y-144543865D01*
X229295102Y-144430945D01*
X229430945Y-144295102D01*
X229543865Y-144139681D01*
X229631082Y-143968509D01*
X229631084Y-143968504D01*
X229652069Y-143903919D01*
X229691506Y-143846243D01*
X229755864Y-143819044D01*
X229824711Y-143830958D01*
X229876187Y-143878202D01*
X229887931Y-143903919D01*
X229908915Y-143968504D01*
X229908918Y-143968509D01*
X229996135Y-144139681D01*
X230109055Y-144295102D01*
X230244898Y-144430945D01*
X230400319Y-144543865D01*
X230571491Y-144631082D01*
X230571493Y-144631083D01*
X230662845Y-144660764D01*
X230754199Y-144690447D01*
X230943945Y-144720500D01*
X230943946Y-144720500D01*
X231136054Y-144720500D01*
X231136055Y-144720500D01*
X231325801Y-144690447D01*
X231508509Y-144631082D01*
X231679681Y-144543865D01*
X231835102Y-144430945D01*
X231970945Y-144295102D01*
X232083865Y-144139681D01*
X232171082Y-143968509D01*
X232171084Y-143968504D01*
X232192069Y-143903919D01*
X232231506Y-143846243D01*
X232295864Y-143819044D01*
X232364711Y-143830958D01*
X232416187Y-143878202D01*
X232427931Y-143903919D01*
X232448915Y-143968504D01*
X232448918Y-143968509D01*
X232536135Y-144139681D01*
X232649055Y-144295102D01*
X232784898Y-144430945D01*
X232940319Y-144543865D01*
X233111491Y-144631082D01*
X233111493Y-144631083D01*
X233202845Y-144660764D01*
X233294199Y-144690447D01*
X233483945Y-144720500D01*
X233483946Y-144720500D01*
X233676054Y-144720500D01*
X233676055Y-144720500D01*
X233865801Y-144690447D01*
X234048509Y-144631082D01*
X234219681Y-144543865D01*
X234375102Y-144430945D01*
X234510945Y-144295102D01*
X234623865Y-144139681D01*
X234665015Y-144058919D01*
X234712990Y-144008124D01*
X234780811Y-143991329D01*
X234846946Y-144013867D01*
X234890397Y-144068582D01*
X234899500Y-144115215D01*
X234899500Y-148174500D01*
X234879815Y-148241539D01*
X234827011Y-148287294D01*
X234775500Y-148298500D01*
X194224500Y-148298500D01*
X194157461Y-148278815D01*
X194111706Y-148226011D01*
X194100500Y-148174500D01*
X194100500Y-142079765D01*
X194120185Y-142012726D01*
X194121398Y-142010874D01*
X194209390Y-141879185D01*
X194209390Y-141879184D01*
X194209394Y-141879179D01*
X194269737Y-141733497D01*
X194300500Y-141578842D01*
X194300500Y-141421158D01*
X194300500Y-141421155D01*
X194300499Y-141421153D01*
X194269738Y-141266510D01*
X194269737Y-141266503D01*
X194269735Y-141266498D01*
X194209397Y-141120827D01*
X194209390Y-141120814D01*
X194121789Y-140989711D01*
X194121786Y-140989707D01*
X194010292Y-140878213D01*
X194010288Y-140878210D01*
X193879185Y-140790609D01*
X193879172Y-140790602D01*
X193733501Y-140730264D01*
X193733489Y-140730261D01*
X193578845Y-140699500D01*
X193578842Y-140699500D01*
X193421158Y-140699500D01*
X193421155Y-140699500D01*
X193266510Y-140730261D01*
X193266498Y-140730264D01*
X193120827Y-140790602D01*
X193120814Y-140790609D01*
X192989711Y-140878210D01*
X192989707Y-140878213D01*
X192878213Y-140989707D01*
X192878210Y-140989711D01*
X192790609Y-141120814D01*
X192790602Y-141120827D01*
X192730264Y-141266498D01*
X192730261Y-141266510D01*
X192699500Y-141421153D01*
X192699500Y-141578846D01*
X192730261Y-141733489D01*
X192730264Y-141733501D01*
X192790602Y-141879172D01*
X192790609Y-141879185D01*
X192878602Y-142010874D01*
X192899480Y-142077551D01*
X192899500Y-142079765D01*
X192899500Y-148875500D01*
X192879815Y-148942539D01*
X192827011Y-148988294D01*
X192775500Y-148999500D01*
X151624500Y-148999500D01*
X151557461Y-148979815D01*
X151511706Y-148927011D01*
X151500500Y-148875500D01*
X151500500Y-146230202D01*
X151520185Y-146163163D01*
X151572989Y-146117408D01*
X151642147Y-146107464D01*
X151705703Y-146136489D01*
X151736220Y-146176400D01*
X151869752Y-146453683D01*
X151869754Y-146453686D01*
X152049054Y-146739039D01*
X152259175Y-147002523D01*
X152497477Y-147240825D01*
X152760961Y-147450946D01*
X153046314Y-147630246D01*
X153349949Y-147776469D01*
X153588848Y-147860063D01*
X153668034Y-147887772D01*
X153668046Y-147887776D01*
X153996606Y-147962767D01*
X154331492Y-148000499D01*
X154331493Y-148000500D01*
X154331496Y-148000500D01*
X154668507Y-148000500D01*
X154668507Y-148000499D01*
X155003394Y-147962767D01*
X155331954Y-147887776D01*
X155650051Y-147776469D01*
X155953686Y-147630246D01*
X156239039Y-147450946D01*
X156502523Y-147240825D01*
X156740825Y-147002523D01*
X156950946Y-146739039D01*
X157130246Y-146453686D01*
X157276469Y-146150051D01*
X157387776Y-145831954D01*
X157462767Y-145503394D01*
X157500500Y-145168504D01*
X157500500Y-144831496D01*
X157462767Y-144496606D01*
X157387776Y-144168046D01*
X157276469Y-143849949D01*
X157130246Y-143546314D01*
X156950946Y-143260961D01*
X156740825Y-142997477D01*
X156502523Y-142759175D01*
X156239039Y-142549054D01*
X156091160Y-142456135D01*
X156008101Y-142403945D01*
X168779500Y-142403945D01*
X168779500Y-142596054D01*
X168809553Y-142785802D01*
X168868916Y-142968506D01*
X168947023Y-143121797D01*
X168956135Y-143139681D01*
X169069055Y-143295102D01*
X169204898Y-143430945D01*
X169360319Y-143543865D01*
X169462745Y-143596054D01*
X169531493Y-143631083D01*
X169622845Y-143660764D01*
X169714199Y-143690447D01*
X169903945Y-143720500D01*
X169903946Y-143720500D01*
X170096054Y-143720500D01*
X170096055Y-143720500D01*
X170285801Y-143690447D01*
X170468509Y-143631082D01*
X170639681Y-143543865D01*
X170795102Y-143430945D01*
X170930945Y-143295102D01*
X171043865Y-143139681D01*
X171131082Y-142968509D01*
X171136504Y-142951823D01*
X171152069Y-142903919D01*
X171191506Y-142846243D01*
X171255864Y-142819044D01*
X171324711Y-142830958D01*
X171376187Y-142878202D01*
X171387931Y-142903919D01*
X171408915Y-142968504D01*
X171487023Y-143121797D01*
X171496135Y-143139681D01*
X171609055Y-143295102D01*
X171744898Y-143430945D01*
X171900319Y-143543865D01*
X172002745Y-143596054D01*
X172071493Y-143631083D01*
X172162845Y-143660764D01*
X172254199Y-143690447D01*
X172443945Y-143720500D01*
X172443946Y-143720500D01*
X172636054Y-143720500D01*
X172636055Y-143720500D01*
X172825801Y-143690447D01*
X173008509Y-143631082D01*
X173179681Y-143543865D01*
X173335102Y-143430945D01*
X173470945Y-143295102D01*
X173583865Y-143139681D01*
X173671082Y-142968509D01*
X173676504Y-142951823D01*
X173692069Y-142903919D01*
X173731506Y-142846243D01*
X173795864Y-142819044D01*
X173864711Y-142830958D01*
X173916187Y-142878202D01*
X173927931Y-142903919D01*
X173948915Y-142968504D01*
X174027023Y-143121797D01*
X174036135Y-143139681D01*
X174149055Y-143295102D01*
X174284898Y-143430945D01*
X174440319Y-143543865D01*
X174542745Y-143596054D01*
X174611493Y-143631083D01*
X174702845Y-143660764D01*
X174794199Y-143690447D01*
X174983945Y-143720500D01*
X174983946Y-143720500D01*
X175176054Y-143720500D01*
X175176055Y-143720500D01*
X175365801Y-143690447D01*
X175548509Y-143631082D01*
X175719681Y-143543865D01*
X175875102Y-143430945D01*
X176010945Y-143295102D01*
X176123865Y-143139681D01*
X176211082Y-142968509D01*
X176270447Y-142785801D01*
X176300500Y-142596055D01*
X176300500Y-142403945D01*
X176270447Y-142214199D01*
X176237313Y-142112223D01*
X176211083Y-142031493D01*
X176194782Y-141999500D01*
X176123865Y-141860319D01*
X176010945Y-141704898D01*
X175875102Y-141569055D01*
X175719681Y-141456135D01*
X175548506Y-141368916D01*
X175365802Y-141309553D01*
X175270928Y-141294526D01*
X175176055Y-141279500D01*
X174983945Y-141279500D01*
X174920696Y-141289517D01*
X174794197Y-141309553D01*
X174611493Y-141368916D01*
X174440318Y-141456135D01*
X174351645Y-141520560D01*
X174284898Y-141569055D01*
X174284896Y-141569057D01*
X174284895Y-141569057D01*
X174149057Y-141704895D01*
X174149057Y-141704896D01*
X174149055Y-141704898D01*
X174128277Y-141733497D01*
X174036135Y-141860318D01*
X173948916Y-142031493D01*
X173927931Y-142096081D01*
X173888494Y-142153756D01*
X173824135Y-142180955D01*
X173755289Y-142169041D01*
X173703813Y-142121797D01*
X173692069Y-142096081D01*
X173671083Y-142031493D01*
X173654782Y-141999500D01*
X173583865Y-141860319D01*
X173470945Y-141704898D01*
X173335102Y-141569055D01*
X173179681Y-141456135D01*
X173008506Y-141368916D01*
X172825802Y-141309553D01*
X172730928Y-141294526D01*
X172636055Y-141279500D01*
X172443945Y-141279500D01*
X172380696Y-141289517D01*
X172254197Y-141309553D01*
X172071493Y-141368916D01*
X171900318Y-141456135D01*
X171811645Y-141520560D01*
X171744898Y-141569055D01*
X171744896Y-141569057D01*
X171744895Y-141569057D01*
X171609057Y-141704895D01*
X171609057Y-141704896D01*
X171609055Y-141704898D01*
X171588277Y-141733497D01*
X171496135Y-141860318D01*
X171408916Y-142031493D01*
X171387931Y-142096081D01*
X171348494Y-142153756D01*
X171284135Y-142180955D01*
X171215289Y-142169041D01*
X171163813Y-142121797D01*
X171152069Y-142096081D01*
X171131083Y-142031493D01*
X171114782Y-141999500D01*
X171043865Y-141860319D01*
X170930945Y-141704898D01*
X170795102Y-141569055D01*
X170639681Y-141456135D01*
X170468506Y-141368916D01*
X170285802Y-141309553D01*
X170190928Y-141294526D01*
X170096055Y-141279500D01*
X169903945Y-141279500D01*
X169840696Y-141289517D01*
X169714197Y-141309553D01*
X169531493Y-141368916D01*
X169360318Y-141456135D01*
X169271645Y-141520560D01*
X169204898Y-141569055D01*
X169204896Y-141569057D01*
X169204895Y-141569057D01*
X169069057Y-141704895D01*
X169069057Y-141704896D01*
X169069055Y-141704898D01*
X169048277Y-141733497D01*
X168956135Y-141860318D01*
X168868916Y-142031493D01*
X168809553Y-142214197D01*
X168779500Y-142403945D01*
X156008101Y-142403945D01*
X155953683Y-142369752D01*
X155650054Y-142223532D01*
X155331965Y-142112227D01*
X155331953Y-142112223D01*
X155003397Y-142037233D01*
X155003381Y-142037231D01*
X154668508Y-141999500D01*
X154668504Y-141999500D01*
X154331496Y-141999500D01*
X154331491Y-141999500D01*
X153996618Y-142037231D01*
X153996602Y-142037233D01*
X153668046Y-142112223D01*
X153668034Y-142112227D01*
X153349945Y-142223532D01*
X153046316Y-142369752D01*
X152760962Y-142549053D01*
X152497477Y-142759174D01*
X152259174Y-142997477D01*
X152049053Y-143260962D01*
X151869752Y-143546316D01*
X151736220Y-143823599D01*
X151689398Y-143875458D01*
X151621970Y-143893771D01*
X151555347Y-143872723D01*
X151510678Y-143818997D01*
X151500500Y-143769797D01*
X151500500Y-139403945D01*
X201239500Y-139403945D01*
X201239500Y-139596054D01*
X201269553Y-139785802D01*
X201328916Y-139968506D01*
X201328918Y-139968509D01*
X201416135Y-140139681D01*
X201529055Y-140295102D01*
X201664898Y-140430945D01*
X201820319Y-140543865D01*
X201991491Y-140631082D01*
X201991493Y-140631083D01*
X202082845Y-140660764D01*
X202174199Y-140690447D01*
X202363945Y-140720500D01*
X202363946Y-140720500D01*
X202556054Y-140720500D01*
X202556055Y-140720500D01*
X202745801Y-140690447D01*
X202928509Y-140631082D01*
X203099681Y-140543865D01*
X203255102Y-140430945D01*
X203390945Y-140295102D01*
X203503865Y-140139681D01*
X203591082Y-139968509D01*
X203591084Y-139968504D01*
X203612069Y-139903919D01*
X203651506Y-139846243D01*
X203715864Y-139819044D01*
X203784711Y-139830958D01*
X203836187Y-139878202D01*
X203847931Y-139903919D01*
X203868915Y-139968504D01*
X203868918Y-139968509D01*
X203956135Y-140139681D01*
X204069055Y-140295102D01*
X204204898Y-140430945D01*
X204360319Y-140543865D01*
X204531491Y-140631082D01*
X204531493Y-140631083D01*
X204622845Y-140660764D01*
X204714199Y-140690447D01*
X204903945Y-140720500D01*
X204903946Y-140720500D01*
X205096054Y-140720500D01*
X205096055Y-140720500D01*
X205285801Y-140690447D01*
X205468509Y-140631082D01*
X205639681Y-140543865D01*
X205795102Y-140430945D01*
X205930945Y-140295102D01*
X206043865Y-140139681D01*
X206131082Y-139968509D01*
X206131084Y-139968504D01*
X206152069Y-139903919D01*
X206191506Y-139846243D01*
X206255864Y-139819044D01*
X206324711Y-139830958D01*
X206376187Y-139878202D01*
X206387931Y-139903919D01*
X206408915Y-139968504D01*
X206408918Y-139968509D01*
X206496135Y-140139681D01*
X206609055Y-140295102D01*
X206744898Y-140430945D01*
X206900319Y-140543865D01*
X207071491Y-140631082D01*
X207071493Y-140631083D01*
X207162845Y-140660764D01*
X207254199Y-140690447D01*
X207443945Y-140720500D01*
X207443946Y-140720500D01*
X207636054Y-140720500D01*
X207636055Y-140720500D01*
X207825801Y-140690447D01*
X208008509Y-140631082D01*
X208179681Y-140543865D01*
X208335102Y-140430945D01*
X208470945Y-140295102D01*
X208583865Y-140139681D01*
X208671082Y-139968509D01*
X208730447Y-139785801D01*
X208760500Y-139596055D01*
X208760500Y-139403945D01*
X208730447Y-139214199D01*
X208700424Y-139121797D01*
X208671083Y-139031493D01*
X208583864Y-138860318D01*
X208470945Y-138704898D01*
X208335102Y-138569055D01*
X208179681Y-138456135D01*
X208008506Y-138368916D01*
X207825802Y-138309553D01*
X207730928Y-138294526D01*
X207636055Y-138279500D01*
X207443945Y-138279500D01*
X207380696Y-138289517D01*
X207254197Y-138309553D01*
X207071493Y-138368916D01*
X206900318Y-138456135D01*
X206811645Y-138520560D01*
X206744898Y-138569055D01*
X206744896Y-138569057D01*
X206744895Y-138569057D01*
X206609057Y-138704895D01*
X206609057Y-138704896D01*
X206609055Y-138704898D01*
X206560560Y-138771645D01*
X206496135Y-138860318D01*
X206408916Y-139031493D01*
X206387931Y-139096081D01*
X206348494Y-139153756D01*
X206284135Y-139180955D01*
X206215289Y-139169041D01*
X206163813Y-139121797D01*
X206152069Y-139096081D01*
X206131083Y-139031493D01*
X206043864Y-138860318D01*
X205930945Y-138704898D01*
X205795102Y-138569055D01*
X205639681Y-138456135D01*
X205468506Y-138368916D01*
X205285802Y-138309553D01*
X205190928Y-138294526D01*
X205096055Y-138279500D01*
X204903945Y-138279500D01*
X204840696Y-138289517D01*
X204714197Y-138309553D01*
X204531493Y-138368916D01*
X204360318Y-138456135D01*
X204271645Y-138520560D01*
X204204898Y-138569055D01*
X204204896Y-138569057D01*
X204204895Y-138569057D01*
X204069057Y-138704895D01*
X204069057Y-138704896D01*
X204069055Y-138704898D01*
X204020560Y-138771645D01*
X203956135Y-138860318D01*
X203868916Y-139031493D01*
X203847931Y-139096081D01*
X203808494Y-139153756D01*
X203744135Y-139180955D01*
X203675289Y-139169041D01*
X203623813Y-139121797D01*
X203612069Y-139096081D01*
X203591083Y-139031493D01*
X203503864Y-138860318D01*
X203390945Y-138704898D01*
X203255102Y-138569055D01*
X203099681Y-138456135D01*
X202928506Y-138368916D01*
X202745802Y-138309553D01*
X202650928Y-138294526D01*
X202556055Y-138279500D01*
X202363945Y-138279500D01*
X202300696Y-138289517D01*
X202174197Y-138309553D01*
X201991493Y-138368916D01*
X201820318Y-138456135D01*
X201731645Y-138520560D01*
X201664898Y-138569055D01*
X201664896Y-138569057D01*
X201664895Y-138569057D01*
X201529057Y-138704895D01*
X201529057Y-138704896D01*
X201529055Y-138704898D01*
X201480560Y-138771645D01*
X201416135Y-138860318D01*
X201328916Y-139031493D01*
X201269553Y-139214197D01*
X201239500Y-139403945D01*
X151500500Y-139403945D01*
X151500500Y-137047844D01*
X153500000Y-137047844D01*
X153506401Y-137107372D01*
X153506403Y-137107379D01*
X153556645Y-137242086D01*
X153556649Y-137242093D01*
X153642809Y-137357187D01*
X153642812Y-137357190D01*
X153757906Y-137443350D01*
X153757913Y-137443354D01*
X153892620Y-137493596D01*
X153892627Y-137493598D01*
X153952155Y-137499999D01*
X153952172Y-137500000D01*
X154250000Y-137500000D01*
X154750000Y-137500000D01*
X155047828Y-137500000D01*
X155047844Y-137499999D01*
X155107372Y-137493598D01*
X155107379Y-137493596D01*
X155242086Y-137443354D01*
X155242093Y-137443350D01*
X155357187Y-137357190D01*
X155357190Y-137357187D01*
X155443350Y-137242093D01*
X155443354Y-137242086D01*
X155493596Y-137107379D01*
X155493598Y-137107372D01*
X155499999Y-137047844D01*
X155500000Y-137047827D01*
X155500000Y-136750000D01*
X154750000Y-136750000D01*
X154750000Y-137500000D01*
X154250000Y-137500000D01*
X154250000Y-136750000D01*
X153500000Y-136750000D01*
X153500000Y-137047844D01*
X151500500Y-137047844D01*
X151500500Y-136457213D01*
X154175000Y-136457213D01*
X154175000Y-136542787D01*
X154197149Y-136625445D01*
X154239936Y-136699554D01*
X154300446Y-136760064D01*
X154374555Y-136802851D01*
X154457213Y-136825000D01*
X154542787Y-136825000D01*
X154625445Y-136802851D01*
X154699554Y-136760064D01*
X154760064Y-136699554D01*
X154802851Y-136625445D01*
X154825000Y-136542787D01*
X154825000Y-136457213D01*
X154802851Y-136374555D01*
X154760064Y-136300446D01*
X154709618Y-136250000D01*
X154750000Y-136250000D01*
X155500000Y-136250000D01*
X155500000Y-135952172D01*
X155499999Y-135952155D01*
X155493598Y-135892627D01*
X155493596Y-135892620D01*
X155443354Y-135757913D01*
X155443350Y-135757906D01*
X155357190Y-135642812D01*
X155357187Y-135642809D01*
X155242093Y-135556649D01*
X155242086Y-135556645D01*
X155107379Y-135506403D01*
X155107372Y-135506401D01*
X155047844Y-135500000D01*
X154750000Y-135500000D01*
X154750000Y-136250000D01*
X154709618Y-136250000D01*
X154699554Y-136239936D01*
X154625445Y-136197149D01*
X154542787Y-136175000D01*
X154457213Y-136175000D01*
X154374555Y-136197149D01*
X154300446Y-136239936D01*
X154239936Y-136300446D01*
X154197149Y-136374555D01*
X154175000Y-136457213D01*
X151500500Y-136457213D01*
X151500500Y-135952155D01*
X153500000Y-135952155D01*
X153500000Y-136250000D01*
X154250000Y-136250000D01*
X154250000Y-135500000D01*
X153952155Y-135500000D01*
X153892627Y-135506401D01*
X153892620Y-135506403D01*
X153757913Y-135556645D01*
X153757906Y-135556649D01*
X153642812Y-135642809D01*
X153642809Y-135642812D01*
X153556649Y-135757906D01*
X153556645Y-135757913D01*
X153506403Y-135892620D01*
X153506401Y-135892627D01*
X153500000Y-135952155D01*
X151500500Y-135952155D01*
X151500500Y-109921153D01*
X156199500Y-109921153D01*
X156199500Y-110078846D01*
X156230261Y-110233489D01*
X156230264Y-110233501D01*
X156290602Y-110379172D01*
X156290609Y-110379185D01*
X156378210Y-110510288D01*
X156378213Y-110510292D01*
X156489707Y-110621786D01*
X156489711Y-110621789D01*
X156620814Y-110709390D01*
X156620827Y-110709397D01*
X156758683Y-110766498D01*
X156766503Y-110769737D01*
X156921153Y-110800499D01*
X156921156Y-110800500D01*
X156921158Y-110800500D01*
X157078844Y-110800500D01*
X157078845Y-110800499D01*
X157233497Y-110769737D01*
X157379179Y-110709394D01*
X157510289Y-110621789D01*
X157621789Y-110510289D01*
X157709394Y-110379179D01*
X157769737Y-110233497D01*
X157800500Y-110078842D01*
X157800500Y-109921158D01*
X157800500Y-109921155D01*
X157776537Y-109800690D01*
X157782764Y-109731098D01*
X157810471Y-109688819D01*
X162850490Y-104648801D01*
X162911811Y-104615318D01*
X162981503Y-104620302D01*
X163007060Y-104633382D01*
X163120814Y-104709390D01*
X163120827Y-104709397D01*
X163266498Y-104769735D01*
X163266503Y-104769737D01*
X163331147Y-104782595D01*
X163421849Y-104800638D01*
X163483760Y-104833023D01*
X163485339Y-104834574D01*
X166515139Y-107864374D01*
X166515149Y-107864385D01*
X166519479Y-107868715D01*
X166519480Y-107868716D01*
X166631284Y-107980520D01*
X166631286Y-107980521D01*
X166631290Y-107980524D01*
X166768209Y-108059573D01*
X166768216Y-108059577D01*
X166880019Y-108089534D01*
X166920942Y-108100500D01*
X166920943Y-108100500D01*
X169496561Y-108100500D01*
X169563600Y-108120185D01*
X169609355Y-108172989D01*
X169619299Y-108242147D01*
X169590274Y-108305703D01*
X169565452Y-108327602D01*
X169489711Y-108378210D01*
X169489707Y-108378213D01*
X169378213Y-108489707D01*
X169378210Y-108489711D01*
X169290609Y-108620814D01*
X169290602Y-108620827D01*
X169230264Y-108766498D01*
X169230261Y-108766510D01*
X169199500Y-108921153D01*
X169199500Y-109078846D01*
X169230261Y-109233489D01*
X169230264Y-109233501D01*
X169290602Y-109379172D01*
X169290609Y-109379185D01*
X169378601Y-109510873D01*
X169384249Y-109528913D01*
X169394472Y-109544816D01*
X169398926Y-109575786D01*
X169399479Y-109577550D01*
X169399499Y-109579751D01*
X169399500Y-109589046D01*
X169399499Y-109589048D01*
X169399500Y-109589059D01*
X169399500Y-110420234D01*
X169379815Y-110487273D01*
X169378602Y-110489125D01*
X169290609Y-110620814D01*
X169290602Y-110620827D01*
X169230264Y-110766498D01*
X169230261Y-110766510D01*
X169199500Y-110921153D01*
X169199500Y-111078846D01*
X169230261Y-111233489D01*
X169230264Y-111233501D01*
X169290602Y-111379172D01*
X169290609Y-111379185D01*
X169378210Y-111510288D01*
X169378213Y-111510292D01*
X169489707Y-111621786D01*
X169489711Y-111621789D01*
X169620814Y-111709390D01*
X169620827Y-111709397D01*
X169766498Y-111769735D01*
X169766503Y-111769737D01*
X169921153Y-111800499D01*
X169921156Y-111800500D01*
X169921158Y-111800500D01*
X170078844Y-111800500D01*
X170078845Y-111800499D01*
X170233497Y-111769737D01*
X170379179Y-111709394D01*
X170510289Y-111621789D01*
X170621789Y-111510289D01*
X170709394Y-111379179D01*
X170732263Y-111323969D01*
X170776104Y-111269565D01*
X170842398Y-111247500D01*
X170910097Y-111264779D01*
X170934505Y-111283740D01*
X173015139Y-113364374D01*
X173015149Y-113364385D01*
X173019479Y-113368715D01*
X173019480Y-113368716D01*
X173131284Y-113480520D01*
X173131286Y-113480521D01*
X173131290Y-113480524D01*
X173268209Y-113559573D01*
X173268216Y-113559577D01*
X173380019Y-113589534D01*
X173420942Y-113600500D01*
X173420943Y-113600500D01*
X173433122Y-113600500D01*
X173445730Y-113603149D01*
X173465619Y-113613826D01*
X173487273Y-113620185D01*
X173489125Y-113621398D01*
X173620814Y-113709390D01*
X173620827Y-113709397D01*
X173759902Y-113767003D01*
X173766503Y-113769737D01*
X173921153Y-113800499D01*
X173921156Y-113800500D01*
X173921158Y-113800500D01*
X174078844Y-113800500D01*
X174078845Y-113800499D01*
X174233497Y-113769737D01*
X174379179Y-113709394D01*
X174510289Y-113621789D01*
X174621789Y-113510289D01*
X174709394Y-113379179D01*
X174769737Y-113233497D01*
X174800500Y-113078842D01*
X174800500Y-112921158D01*
X174800500Y-112921155D01*
X174800499Y-112921153D01*
X174769738Y-112766510D01*
X174769737Y-112766503D01*
X174769735Y-112766498D01*
X174709397Y-112620827D01*
X174709390Y-112620814D01*
X174621789Y-112489711D01*
X174621786Y-112489707D01*
X174510292Y-112378213D01*
X174510288Y-112378210D01*
X174379185Y-112290609D01*
X174379172Y-112290602D01*
X174233501Y-112230264D01*
X174233489Y-112230261D01*
X174078845Y-112199500D01*
X174078842Y-112199500D01*
X173921158Y-112199500D01*
X173921155Y-112199500D01*
X173766511Y-112230260D01*
X173766502Y-112230263D01*
X173710814Y-112253329D01*
X173641345Y-112260796D01*
X173578866Y-112229520D01*
X173575683Y-112226448D01*
X173078337Y-111729102D01*
X173044852Y-111667779D01*
X173049836Y-111598087D01*
X173078337Y-111553740D01*
X173121789Y-111510289D01*
X173209394Y-111379179D01*
X173269737Y-111233497D01*
X173300500Y-111078842D01*
X173300500Y-110921158D01*
X173300500Y-110921155D01*
X173300499Y-110921153D01*
X173269738Y-110766510D01*
X173269737Y-110766503D01*
X173209794Y-110621786D01*
X173209397Y-110620827D01*
X173209390Y-110620814D01*
X173121398Y-110489125D01*
X173100520Y-110422447D01*
X173100500Y-110420234D01*
X173100500Y-107420945D01*
X173100500Y-107420943D01*
X173059577Y-107268216D01*
X173059573Y-107268209D01*
X172980524Y-107131290D01*
X172980518Y-107131282D01*
X172868717Y-107019481D01*
X172868709Y-107019475D01*
X172731790Y-106940426D01*
X172731786Y-106940424D01*
X172731784Y-106940423D01*
X172579057Y-106899500D01*
X172579056Y-106899500D01*
X167300097Y-106899500D01*
X167233058Y-106879815D01*
X167212416Y-106863181D01*
X164334574Y-103985339D01*
X164301089Y-103924016D01*
X164300638Y-103921849D01*
X164269738Y-103766510D01*
X164269737Y-103766503D01*
X164269735Y-103766498D01*
X164209397Y-103620827D01*
X164209390Y-103620814D01*
X164133382Y-103507060D01*
X164112504Y-103440382D01*
X164130989Y-103373002D01*
X164148799Y-103350492D01*
X174963474Y-92535819D01*
X175024797Y-92502334D01*
X175051155Y-92499500D01*
X175581954Y-92499500D01*
X175648993Y-92519185D01*
X175694748Y-92571989D01*
X175703571Y-92599309D01*
X175730261Y-92733489D01*
X175730264Y-92733501D01*
X175790602Y-92879172D01*
X175790609Y-92879185D01*
X175878602Y-93010874D01*
X175899480Y-93077551D01*
X175899500Y-93079765D01*
X175899500Y-113767003D01*
X175879815Y-113834042D01*
X175863181Y-113854684D01*
X173953684Y-115764181D01*
X173892361Y-115797666D01*
X173866003Y-115800500D01*
X173366673Y-115800500D01*
X173299634Y-115780815D01*
X173253879Y-115728011D01*
X173252112Y-115723952D01*
X173209397Y-115620827D01*
X173209390Y-115620814D01*
X173121789Y-115489711D01*
X173121786Y-115489707D01*
X173010292Y-115378213D01*
X173010288Y-115378210D01*
X172879185Y-115290609D01*
X172879172Y-115290602D01*
X172733501Y-115230264D01*
X172733489Y-115230261D01*
X172578845Y-115199500D01*
X172578842Y-115199500D01*
X172421158Y-115199500D01*
X172421155Y-115199500D01*
X172266510Y-115230261D01*
X172266498Y-115230264D01*
X172120827Y-115290602D01*
X172120814Y-115290609D01*
X171989711Y-115378210D01*
X171989707Y-115378213D01*
X171878213Y-115489707D01*
X171878210Y-115489711D01*
X171790609Y-115620814D01*
X171790602Y-115620827D01*
X171730264Y-115766498D01*
X171730261Y-115766510D01*
X171699500Y-115921153D01*
X171699500Y-116078846D01*
X171730261Y-116233489D01*
X171730264Y-116233501D01*
X171790602Y-116379172D01*
X171790609Y-116379185D01*
X171878210Y-116510288D01*
X171878213Y-116510292D01*
X171989707Y-116621786D01*
X171989711Y-116621789D01*
X172120814Y-116709390D01*
X172120827Y-116709397D01*
X172215799Y-116748735D01*
X172266503Y-116769737D01*
X172421158Y-116800500D01*
X172421847Y-116800637D01*
X172483758Y-116833022D01*
X172485337Y-116834573D01*
X172532284Y-116881520D01*
X172532286Y-116881521D01*
X172532290Y-116881524D01*
X172669209Y-116960573D01*
X172669216Y-116960577D01*
X172821943Y-117001501D01*
X172821945Y-117001501D01*
X172987654Y-117001501D01*
X172987670Y-117001500D01*
X174079431Y-117001500D01*
X174079447Y-117001501D01*
X174087043Y-117001501D01*
X174245154Y-117001501D01*
X174245157Y-117001501D01*
X174397885Y-116960577D01*
X174448004Y-116931639D01*
X174534816Y-116881520D01*
X174646620Y-116769716D01*
X174646620Y-116769714D01*
X174656828Y-116759507D01*
X174656830Y-116759504D01*
X176868713Y-114547621D01*
X176868716Y-114547620D01*
X176980520Y-114435816D01*
X177030639Y-114349004D01*
X177059577Y-114298885D01*
X177100501Y-114146157D01*
X177100501Y-113988043D01*
X177100501Y-113980448D01*
X177100500Y-113980430D01*
X177100500Y-102421153D01*
X188199500Y-102421153D01*
X188199500Y-102578846D01*
X188230261Y-102733489D01*
X188230264Y-102733501D01*
X188290602Y-102879172D01*
X188290609Y-102879185D01*
X188378210Y-103010288D01*
X188378213Y-103010292D01*
X188489707Y-103121786D01*
X188489711Y-103121789D01*
X188620814Y-103209390D01*
X188620827Y-103209397D01*
X188766498Y-103269735D01*
X188766503Y-103269737D01*
X188831147Y-103282595D01*
X188921849Y-103300638D01*
X188983760Y-103333023D01*
X188985339Y-103334574D01*
X204363181Y-118712416D01*
X204396666Y-118773739D01*
X204399500Y-118800097D01*
X204399500Y-129420234D01*
X204379815Y-129487273D01*
X204378602Y-129489125D01*
X204290609Y-129620814D01*
X204290602Y-129620827D01*
X204230264Y-129766498D01*
X204230261Y-129766510D01*
X204199500Y-129921153D01*
X204199500Y-130078846D01*
X204230261Y-130233489D01*
X204230264Y-130233501D01*
X204290602Y-130379172D01*
X204290609Y-130379185D01*
X204378210Y-130510288D01*
X204378213Y-130510292D01*
X204489707Y-130621786D01*
X204489711Y-130621789D01*
X204620814Y-130709390D01*
X204620827Y-130709397D01*
X204766498Y-130769735D01*
X204766503Y-130769737D01*
X204921153Y-130800499D01*
X204921156Y-130800500D01*
X204921158Y-130800500D01*
X205078844Y-130800500D01*
X205078845Y-130800499D01*
X205233497Y-130769737D01*
X205379179Y-130709394D01*
X205510289Y-130621789D01*
X205621789Y-130510289D01*
X205709394Y-130379179D01*
X205769737Y-130233497D01*
X205800500Y-130078842D01*
X205800500Y-129921158D01*
X205800500Y-129921155D01*
X205800499Y-129921153D01*
X205769738Y-129766510D01*
X205769737Y-129766503D01*
X205742006Y-129699554D01*
X205709397Y-129620827D01*
X205709390Y-129620814D01*
X205621398Y-129489125D01*
X205600520Y-129422447D01*
X205600500Y-129420234D01*
X205600500Y-118589059D01*
X205600501Y-118589046D01*
X205600501Y-118420945D01*
X205600501Y-118420943D01*
X205559577Y-118268215D01*
X205530639Y-118218095D01*
X205480520Y-118131284D01*
X205368716Y-118019480D01*
X205368715Y-118019479D01*
X205364385Y-118015149D01*
X205364374Y-118015139D01*
X197397079Y-110047844D01*
X245000000Y-110047844D01*
X245006401Y-110107372D01*
X245006403Y-110107379D01*
X245056645Y-110242086D01*
X245056649Y-110242093D01*
X245142809Y-110357187D01*
X245142812Y-110357190D01*
X245257906Y-110443350D01*
X245257913Y-110443354D01*
X245392620Y-110493596D01*
X245392627Y-110493598D01*
X245452155Y-110499999D01*
X245452172Y-110500000D01*
X245750000Y-110500000D01*
X246250000Y-110500000D01*
X246547828Y-110500000D01*
X246547844Y-110499999D01*
X246607372Y-110493598D01*
X246607379Y-110493596D01*
X246742086Y-110443354D01*
X246742093Y-110443350D01*
X246857187Y-110357190D01*
X246857190Y-110357187D01*
X246943350Y-110242093D01*
X246943354Y-110242086D01*
X246993596Y-110107379D01*
X246993598Y-110107372D01*
X246999999Y-110047844D01*
X247000000Y-110047827D01*
X247000000Y-109750000D01*
X246250000Y-109750000D01*
X246250000Y-110500000D01*
X245750000Y-110500000D01*
X245750000Y-109750000D01*
X245000000Y-109750000D01*
X245000000Y-110047844D01*
X197397079Y-110047844D01*
X196806448Y-109457213D01*
X245675000Y-109457213D01*
X245675000Y-109542787D01*
X245697149Y-109625445D01*
X245739936Y-109699554D01*
X245800446Y-109760064D01*
X245874555Y-109802851D01*
X245957213Y-109825000D01*
X246042787Y-109825000D01*
X246125445Y-109802851D01*
X246199554Y-109760064D01*
X246260064Y-109699554D01*
X246302851Y-109625445D01*
X246325000Y-109542787D01*
X246325000Y-109457213D01*
X246302851Y-109374555D01*
X246260064Y-109300446D01*
X246209618Y-109250000D01*
X246250000Y-109250000D01*
X247000000Y-109250000D01*
X247000000Y-108952172D01*
X246999999Y-108952155D01*
X246993598Y-108892627D01*
X246993596Y-108892620D01*
X246943354Y-108757913D01*
X246943350Y-108757906D01*
X246857190Y-108642812D01*
X246857187Y-108642809D01*
X246742093Y-108556649D01*
X246742086Y-108556645D01*
X246607379Y-108506403D01*
X246607372Y-108506401D01*
X246547844Y-108500000D01*
X246250000Y-108500000D01*
X246250000Y-109250000D01*
X246209618Y-109250000D01*
X246199554Y-109239936D01*
X246125445Y-109197149D01*
X246042787Y-109175000D01*
X245957213Y-109175000D01*
X245874555Y-109197149D01*
X245800446Y-109239936D01*
X245739936Y-109300446D01*
X245697149Y-109374555D01*
X245675000Y-109457213D01*
X196806448Y-109457213D01*
X196301390Y-108952155D01*
X245000000Y-108952155D01*
X245000000Y-109250000D01*
X245750000Y-109250000D01*
X245750000Y-108500000D01*
X245452155Y-108500000D01*
X245392627Y-108506401D01*
X245392620Y-108506403D01*
X245257913Y-108556645D01*
X245257906Y-108556649D01*
X245142812Y-108642809D01*
X245142809Y-108642812D01*
X245056649Y-108757906D01*
X245056645Y-108757913D01*
X245006403Y-108892620D01*
X245006401Y-108892627D01*
X245000000Y-108952155D01*
X196301390Y-108952155D01*
X189834574Y-102485339D01*
X189801089Y-102424016D01*
X189800638Y-102421849D01*
X189769738Y-102266510D01*
X189769737Y-102266503D01*
X189769735Y-102266498D01*
X189709397Y-102120827D01*
X189709390Y-102120814D01*
X189621789Y-101989711D01*
X189621786Y-101989707D01*
X189510292Y-101878213D01*
X189510288Y-101878210D01*
X189379185Y-101790609D01*
X189379172Y-101790602D01*
X189233501Y-101730264D01*
X189233489Y-101730261D01*
X189078845Y-101699500D01*
X189078842Y-101699500D01*
X188921158Y-101699500D01*
X188921155Y-101699500D01*
X188766510Y-101730261D01*
X188766498Y-101730264D01*
X188620827Y-101790602D01*
X188620814Y-101790609D01*
X188489711Y-101878210D01*
X188489707Y-101878213D01*
X188378213Y-101989707D01*
X188378210Y-101989711D01*
X188290609Y-102120814D01*
X188290602Y-102120827D01*
X188230264Y-102266498D01*
X188230261Y-102266510D01*
X188199500Y-102421153D01*
X177100500Y-102421153D01*
X177100500Y-100452135D01*
X244999500Y-100452135D01*
X244999500Y-101547870D01*
X244999501Y-101547876D01*
X245005908Y-101607483D01*
X245056202Y-101742328D01*
X245056206Y-101742335D01*
X245142452Y-101857544D01*
X245142455Y-101857547D01*
X245257664Y-101943793D01*
X245257671Y-101943797D01*
X245392517Y-101994091D01*
X245392516Y-101994091D01*
X245399444Y-101994835D01*
X245452127Y-102000500D01*
X246547872Y-102000499D01*
X246607483Y-101994091D01*
X246742331Y-101943796D01*
X246857546Y-101857546D01*
X246943796Y-101742331D01*
X246994091Y-101607483D01*
X247000500Y-101547873D01*
X247000499Y-100452128D01*
X246994091Y-100392517D01*
X246943796Y-100257669D01*
X246943795Y-100257668D01*
X246943793Y-100257664D01*
X246857547Y-100142455D01*
X246857544Y-100142452D01*
X246742335Y-100056206D01*
X246742328Y-100056202D01*
X246607482Y-100005908D01*
X246607483Y-100005908D01*
X246547883Y-99999501D01*
X246547881Y-99999500D01*
X246547873Y-99999500D01*
X246547864Y-99999500D01*
X245452129Y-99999500D01*
X245452123Y-99999501D01*
X245392516Y-100005908D01*
X245257671Y-100056202D01*
X245257664Y-100056206D01*
X245142455Y-100142452D01*
X245142452Y-100142455D01*
X245056206Y-100257664D01*
X245056202Y-100257671D01*
X245005908Y-100392517D01*
X244999501Y-100452116D01*
X244999501Y-100452123D01*
X244999500Y-100452135D01*
X177100500Y-100452135D01*
X177100500Y-93079765D01*
X177120185Y-93012726D01*
X177121398Y-93010874D01*
X177209390Y-92879185D01*
X177209390Y-92879184D01*
X177209394Y-92879179D01*
X177269737Y-92733497D01*
X177296429Y-92599309D01*
X177328814Y-92537398D01*
X177389529Y-92502824D01*
X177418046Y-92499500D01*
X181816059Y-92499500D01*
X181883098Y-92519185D01*
X181903740Y-92535819D01*
X181989707Y-92621786D01*
X181989711Y-92621789D01*
X182120814Y-92709390D01*
X182120827Y-92709397D01*
X182221907Y-92751265D01*
X182266503Y-92769737D01*
X182421153Y-92800499D01*
X182421156Y-92800500D01*
X182421158Y-92800500D01*
X182578844Y-92800500D01*
X182578845Y-92800499D01*
X182733497Y-92769737D01*
X182879179Y-92709394D01*
X183010289Y-92621789D01*
X183121789Y-92510289D01*
X183209394Y-92379179D01*
X183269737Y-92233497D01*
X183300500Y-92078842D01*
X183300500Y-91921158D01*
X183300500Y-91921155D01*
X183300499Y-91921153D01*
X183269738Y-91766510D01*
X183269737Y-91766503D01*
X183250343Y-91719681D01*
X183209397Y-91620827D01*
X183209390Y-91620814D01*
X183121789Y-91489711D01*
X183121786Y-91489707D01*
X183010292Y-91378213D01*
X183010288Y-91378210D01*
X182879185Y-91290609D01*
X182879172Y-91290602D01*
X182733501Y-91230264D01*
X182733489Y-91230261D01*
X182578845Y-91199500D01*
X182578842Y-91199500D01*
X182421158Y-91199500D01*
X182421155Y-91199500D01*
X182266510Y-91230261D01*
X182266498Y-91230264D01*
X182124550Y-91289061D01*
X182077098Y-91298500D01*
X174837727Y-91298500D01*
X174837711Y-91298499D01*
X174830115Y-91298499D01*
X174672000Y-91298499D01*
X174595636Y-91318961D01*
X174519271Y-91339423D01*
X174519266Y-91339426D01*
X174382347Y-91418475D01*
X174382339Y-91418481D01*
X156519481Y-109281339D01*
X156519477Y-109281344D01*
X156480129Y-109349499D01*
X156479796Y-109350075D01*
X156440423Y-109418272D01*
X156440363Y-109418493D01*
X156436209Y-109425702D01*
X156429270Y-109432328D01*
X156416459Y-109451461D01*
X156378213Y-109489708D01*
X156378208Y-109489714D01*
X156290609Y-109620814D01*
X156290602Y-109620827D01*
X156230264Y-109766498D01*
X156230261Y-109766510D01*
X156199500Y-109921153D01*
X151500500Y-109921153D01*
X151500500Y-99027135D01*
X153074500Y-99027135D01*
X153074500Y-99972870D01*
X153074501Y-99972876D01*
X153080908Y-100032483D01*
X153131202Y-100167328D01*
X153131206Y-100167335D01*
X153217452Y-100282544D01*
X153217455Y-100282547D01*
X153332664Y-100368793D01*
X153332671Y-100368797D01*
X153467517Y-100419091D01*
X153467516Y-100419091D01*
X153474444Y-100419835D01*
X153527127Y-100425500D01*
X154472872Y-100425499D01*
X154532483Y-100419091D01*
X154667331Y-100368796D01*
X154782546Y-100282546D01*
X154868796Y-100167331D01*
X154919091Y-100032483D01*
X154925500Y-99972873D01*
X154925499Y-99475095D01*
X154945183Y-99408057D01*
X154961813Y-99387420D01*
X169313416Y-85035819D01*
X169374739Y-85002334D01*
X169401097Y-84999500D01*
X175376500Y-84999500D01*
X175443539Y-85019185D01*
X175489294Y-85071989D01*
X175500500Y-85123500D01*
X175500500Y-89887043D01*
X175500500Y-90045157D01*
X175534753Y-90172989D01*
X175541423Y-90197883D01*
X175541426Y-90197890D01*
X175620475Y-90334809D01*
X175620479Y-90334814D01*
X175620480Y-90334816D01*
X175732284Y-90446620D01*
X175732286Y-90446621D01*
X175732290Y-90446624D01*
X175869209Y-90525673D01*
X175869216Y-90525677D01*
X176021943Y-90566600D01*
X182733103Y-90566600D01*
X182800142Y-90586285D01*
X182820784Y-90602919D01*
X186264181Y-94046316D01*
X186297666Y-94107639D01*
X186300500Y-94133997D01*
X186300500Y-96798903D01*
X186280815Y-96865942D01*
X186264181Y-96886584D01*
X184985339Y-98165425D01*
X184924016Y-98198910D01*
X184921850Y-98199361D01*
X184766508Y-98230261D01*
X184766498Y-98230264D01*
X184620827Y-98290602D01*
X184620814Y-98290609D01*
X184489711Y-98378210D01*
X184489707Y-98378213D01*
X184378213Y-98489707D01*
X184378210Y-98489711D01*
X184290609Y-98620814D01*
X184290602Y-98620827D01*
X184230264Y-98766498D01*
X184230261Y-98766510D01*
X184199500Y-98921153D01*
X184199500Y-99078846D01*
X184230261Y-99233489D01*
X184230264Y-99233501D01*
X184290602Y-99379172D01*
X184290609Y-99379185D01*
X184378210Y-99510288D01*
X184378213Y-99510292D01*
X184489707Y-99621786D01*
X184489711Y-99621789D01*
X184620814Y-99709390D01*
X184620827Y-99709397D01*
X184766498Y-99769735D01*
X184766503Y-99769737D01*
X184921153Y-99800499D01*
X184921156Y-99800500D01*
X184921158Y-99800500D01*
X185078844Y-99800500D01*
X185078845Y-99800499D01*
X185233497Y-99769737D01*
X185379179Y-99709394D01*
X185510289Y-99621789D01*
X185621789Y-99510289D01*
X185709394Y-99379179D01*
X185769737Y-99233497D01*
X185789113Y-99136085D01*
X185800638Y-99078150D01*
X185833023Y-99016239D01*
X185834519Y-99014715D01*
X187269713Y-97579521D01*
X187269716Y-97579520D01*
X187381520Y-97467716D01*
X187431639Y-97380904D01*
X187460577Y-97330785D01*
X187501501Y-97178057D01*
X187501501Y-97019943D01*
X187501501Y-97012348D01*
X187501500Y-97012330D01*
X187501500Y-94217197D01*
X187521185Y-94150158D01*
X187573989Y-94104403D01*
X187643147Y-94094459D01*
X187706703Y-94123484D01*
X187713179Y-94129514D01*
X188465184Y-94881520D01*
X188465186Y-94881521D01*
X188465190Y-94881524D01*
X188602109Y-94960573D01*
X188602112Y-94960575D01*
X188602116Y-94960577D01*
X188754843Y-95001501D01*
X188754845Y-95001501D01*
X188920554Y-95001501D01*
X188920570Y-95001500D01*
X201012331Y-95001500D01*
X201012347Y-95001501D01*
X201019943Y-95001501D01*
X201178054Y-95001501D01*
X201178057Y-95001501D01*
X201330785Y-94960577D01*
X201394943Y-94923535D01*
X201467716Y-94881520D01*
X201579520Y-94769716D01*
X201579520Y-94769714D01*
X201589724Y-94759511D01*
X201589727Y-94759506D01*
X208014664Y-88334571D01*
X208075985Y-88301088D01*
X208078152Y-88300637D01*
X208078841Y-88300500D01*
X208078842Y-88300500D01*
X208233497Y-88269737D01*
X208379179Y-88209394D01*
X208510289Y-88121789D01*
X208621789Y-88010289D01*
X208709394Y-87879179D01*
X208769737Y-87733497D01*
X208800500Y-87578842D01*
X208800500Y-87421158D01*
X208800500Y-87421155D01*
X208800499Y-87421153D01*
X208776616Y-87301088D01*
X208769737Y-87266503D01*
X208746080Y-87209390D01*
X208709397Y-87120827D01*
X208709390Y-87120814D01*
X208621789Y-86989711D01*
X208621786Y-86989707D01*
X208578337Y-86946258D01*
X208544852Y-86884935D01*
X208549836Y-86815243D01*
X208578335Y-86770899D01*
X209514662Y-85834572D01*
X209575983Y-85801089D01*
X209578150Y-85800638D01*
X209636085Y-85789113D01*
X209733497Y-85769737D01*
X209867579Y-85714199D01*
X209879172Y-85709397D01*
X209879172Y-85709396D01*
X209879179Y-85709394D01*
X210010289Y-85621789D01*
X210121789Y-85510289D01*
X210209394Y-85379179D01*
X210269737Y-85233497D01*
X210300500Y-85078842D01*
X210300500Y-84921158D01*
X210300500Y-84921155D01*
X210300499Y-84921153D01*
X210269738Y-84766510D01*
X210269738Y-84766508D01*
X210269737Y-84766503D01*
X210230593Y-84672000D01*
X210209397Y-84620827D01*
X210209390Y-84620814D01*
X210121789Y-84489711D01*
X210121786Y-84489707D01*
X210010292Y-84378213D01*
X210010288Y-84378210D01*
X209879185Y-84290609D01*
X209879172Y-84290602D01*
X209733501Y-84230264D01*
X209733489Y-84230261D01*
X209684031Y-84220423D01*
X209684030Y-84220423D01*
X209578844Y-84199500D01*
X209578842Y-84199500D01*
X209421158Y-84199500D01*
X209421155Y-84199500D01*
X209266510Y-84230261D01*
X209266498Y-84230264D01*
X209120827Y-84290602D01*
X209120814Y-84290609D01*
X208989711Y-84378210D01*
X208989707Y-84378213D01*
X208878213Y-84489707D01*
X208878210Y-84489711D01*
X208790609Y-84620814D01*
X208790602Y-84620827D01*
X208730264Y-84766498D01*
X208730261Y-84766508D01*
X208699361Y-84921850D01*
X208666976Y-84983761D01*
X208665425Y-84985339D01*
X204787584Y-88863181D01*
X204726261Y-88896666D01*
X204699903Y-88899500D01*
X188920943Y-88899500D01*
X188768216Y-88940423D01*
X188768209Y-88940426D01*
X188631290Y-89019475D01*
X188631282Y-89019481D01*
X188519481Y-89131282D01*
X188519475Y-89131290D01*
X188440426Y-89268209D01*
X188440423Y-89268216D01*
X188399500Y-89420943D01*
X188399500Y-91113444D01*
X188379815Y-91180483D01*
X188327011Y-91226238D01*
X188257853Y-91236182D01*
X188239575Y-91231202D01*
X188239324Y-91232031D01*
X188233500Y-91230264D01*
X188233497Y-91230263D01*
X188233492Y-91230262D01*
X188233489Y-91230261D01*
X188078845Y-91199500D01*
X188078842Y-91199500D01*
X187921158Y-91199500D01*
X187921155Y-91199500D01*
X187766510Y-91230261D01*
X187766498Y-91230264D01*
X187620827Y-91290602D01*
X187620814Y-91290609D01*
X187489711Y-91378210D01*
X187489707Y-91378213D01*
X187378213Y-91489707D01*
X187378210Y-91489711D01*
X187290609Y-91620814D01*
X187290602Y-91620827D01*
X187230264Y-91766498D01*
X187230261Y-91766510D01*
X187199500Y-91921153D01*
X187199500Y-92078846D01*
X187230261Y-92233489D01*
X187230264Y-92233501D01*
X187290602Y-92379172D01*
X187290609Y-92379185D01*
X187378602Y-92510874D01*
X187399480Y-92577551D01*
X187399500Y-92579765D01*
X187399500Y-93183803D01*
X187379815Y-93250842D01*
X187327011Y-93296597D01*
X187257853Y-93306541D01*
X187194297Y-93277516D01*
X187187819Y-93271484D01*
X183520790Y-89604455D01*
X183520788Y-89604452D01*
X183401917Y-89485581D01*
X183401916Y-89485580D01*
X183315104Y-89435460D01*
X183315104Y-89435459D01*
X183315100Y-89435458D01*
X183264985Y-89406523D01*
X183112257Y-89365599D01*
X182954143Y-89365599D01*
X182946547Y-89365599D01*
X182946531Y-89365600D01*
X176825500Y-89365600D01*
X176758461Y-89345915D01*
X176712706Y-89293111D01*
X176701500Y-89241600D01*
X176701500Y-87421153D01*
X178199500Y-87421153D01*
X178199500Y-87578846D01*
X178230261Y-87733489D01*
X178230264Y-87733501D01*
X178290602Y-87879172D01*
X178290609Y-87879185D01*
X178378210Y-88010288D01*
X178378213Y-88010292D01*
X178489707Y-88121786D01*
X178489711Y-88121789D01*
X178620814Y-88209390D01*
X178620827Y-88209397D01*
X178766498Y-88269735D01*
X178766503Y-88269737D01*
X178921153Y-88300499D01*
X178921156Y-88300500D01*
X178921158Y-88300500D01*
X179078844Y-88300500D01*
X179078845Y-88300499D01*
X179233497Y-88269737D01*
X179379179Y-88209394D01*
X179379185Y-88209390D01*
X179510875Y-88121398D01*
X179577553Y-88100520D01*
X179579766Y-88100500D01*
X188413331Y-88100500D01*
X188413347Y-88100501D01*
X188420943Y-88100501D01*
X188579054Y-88100501D01*
X188579057Y-88100501D01*
X188731785Y-88059577D01*
X188781904Y-88030639D01*
X188868716Y-87980520D01*
X188980520Y-87868716D01*
X188980520Y-87868714D01*
X188990728Y-87858507D01*
X188990729Y-87858504D01*
X189514665Y-87334570D01*
X189575984Y-87301088D01*
X189578151Y-87300637D01*
X189578840Y-87300500D01*
X189578842Y-87300500D01*
X189733497Y-87269737D01*
X189879179Y-87209394D01*
X190010289Y-87121789D01*
X190121789Y-87010289D01*
X190209394Y-86879179D01*
X190269737Y-86733497D01*
X190300500Y-86578842D01*
X190300500Y-86421158D01*
X190300500Y-86421155D01*
X190300499Y-86421153D01*
X190275165Y-86293793D01*
X190269737Y-86266503D01*
X190263545Y-86251555D01*
X190209397Y-86120827D01*
X190209390Y-86120814D01*
X190121789Y-85989711D01*
X190121786Y-85989707D01*
X190010292Y-85878213D01*
X190010288Y-85878210D01*
X189879185Y-85790609D01*
X189879172Y-85790602D01*
X189733501Y-85730264D01*
X189733489Y-85730261D01*
X189578845Y-85699500D01*
X189578842Y-85699500D01*
X189421158Y-85699500D01*
X189421155Y-85699500D01*
X189266510Y-85730261D01*
X189266498Y-85730264D01*
X189120827Y-85790602D01*
X189120814Y-85790609D01*
X188989711Y-85878210D01*
X188989707Y-85878213D01*
X188878213Y-85989707D01*
X188878210Y-85989711D01*
X188790609Y-86120814D01*
X188790602Y-86120827D01*
X188730264Y-86266498D01*
X188730261Y-86266508D01*
X188699362Y-86421849D01*
X188666977Y-86483759D01*
X188665426Y-86485338D01*
X188287584Y-86863181D01*
X188226261Y-86896666D01*
X188199903Y-86899500D01*
X179579766Y-86899500D01*
X179512727Y-86879815D01*
X179510875Y-86878602D01*
X179379185Y-86790609D01*
X179379172Y-86790602D01*
X179233501Y-86730264D01*
X179233489Y-86730261D01*
X179078845Y-86699500D01*
X179078842Y-86699500D01*
X178921158Y-86699500D01*
X178921155Y-86699500D01*
X178766510Y-86730261D01*
X178766498Y-86730264D01*
X178620827Y-86790602D01*
X178620814Y-86790609D01*
X178489711Y-86878210D01*
X178489707Y-86878213D01*
X178378213Y-86989707D01*
X178378210Y-86989711D01*
X178290609Y-87120814D01*
X178290602Y-87120827D01*
X178230264Y-87266498D01*
X178230261Y-87266510D01*
X178199500Y-87421153D01*
X176701500Y-87421153D01*
X176701500Y-84840117D01*
X176701501Y-84840104D01*
X176701501Y-84672002D01*
X176701501Y-84672000D01*
X176660577Y-84519272D01*
X176581520Y-84382341D01*
X176229464Y-84030285D01*
X176229463Y-84030284D01*
X176117659Y-83918480D01*
X176030847Y-83868360D01*
X176030847Y-83868359D01*
X176030843Y-83868358D01*
X175980728Y-83839423D01*
X175828000Y-83798499D01*
X175669886Y-83798499D01*
X175662290Y-83798499D01*
X175662274Y-83798500D01*
X169187669Y-83798500D01*
X169187653Y-83798499D01*
X169180057Y-83798499D01*
X169021943Y-83798499D01*
X168914587Y-83827265D01*
X168869210Y-83839424D01*
X168869209Y-83839425D01*
X168819096Y-83868359D01*
X168819095Y-83868360D01*
X168775689Y-83893420D01*
X168732285Y-83918479D01*
X168732282Y-83918481D01*
X168620478Y-84030286D01*
X154112582Y-98538181D01*
X154051259Y-98571666D01*
X154024901Y-98574500D01*
X153527129Y-98574500D01*
X153527123Y-98574501D01*
X153467516Y-98580908D01*
X153332671Y-98631202D01*
X153332664Y-98631206D01*
X153217455Y-98717452D01*
X153217452Y-98717455D01*
X153131206Y-98832664D01*
X153131202Y-98832671D01*
X153080908Y-98967517D01*
X153074501Y-99027116D01*
X153074500Y-99027135D01*
X151500500Y-99027135D01*
X151500500Y-85903945D01*
X155279500Y-85903945D01*
X155279500Y-86096055D01*
X155283423Y-86120821D01*
X155309553Y-86285802D01*
X155368916Y-86468506D01*
X155385218Y-86500500D01*
X155456135Y-86639681D01*
X155569055Y-86795102D01*
X155704898Y-86930945D01*
X155860319Y-87043865D01*
X156011339Y-87120814D01*
X156031493Y-87131083D01*
X156096081Y-87152069D01*
X156153756Y-87191506D01*
X156180955Y-87255865D01*
X156169041Y-87324711D01*
X156121797Y-87376187D01*
X156096081Y-87387931D01*
X156031493Y-87408916D01*
X155860318Y-87496135D01*
X155771645Y-87560560D01*
X155704898Y-87609055D01*
X155704896Y-87609057D01*
X155704895Y-87609057D01*
X155569057Y-87744895D01*
X155569057Y-87744896D01*
X155569055Y-87744898D01*
X155520560Y-87811645D01*
X155456135Y-87900318D01*
X155368916Y-88071493D01*
X155309553Y-88254197D01*
X155279500Y-88443945D01*
X155279500Y-88636054D01*
X155309553Y-88825802D01*
X155368916Y-89008506D01*
X155431474Y-89131282D01*
X155456135Y-89179681D01*
X155569055Y-89335102D01*
X155704898Y-89470945D01*
X155860319Y-89583865D01*
X156031491Y-89671082D01*
X156031493Y-89671083D01*
X156096081Y-89692069D01*
X156153756Y-89731506D01*
X156180955Y-89795865D01*
X156169041Y-89864711D01*
X156121797Y-89916187D01*
X156096081Y-89927931D01*
X156031493Y-89948916D01*
X155860318Y-90036135D01*
X155771728Y-90100500D01*
X155704898Y-90149055D01*
X155704896Y-90149057D01*
X155704895Y-90149057D01*
X155569057Y-90284895D01*
X155569057Y-90284896D01*
X155569055Y-90284898D01*
X155532787Y-90334817D01*
X155456135Y-90440318D01*
X155368916Y-90611493D01*
X155309553Y-90794197D01*
X155309553Y-90794199D01*
X155279500Y-90983945D01*
X155279500Y-91176055D01*
X155288366Y-91232031D01*
X155309553Y-91365802D01*
X155368916Y-91548506D01*
X155368918Y-91548509D01*
X155456135Y-91719681D01*
X155569055Y-91875102D01*
X155704898Y-92010945D01*
X155860319Y-92123865D01*
X156031491Y-92211082D01*
X156031493Y-92211083D01*
X156100453Y-92233489D01*
X156214199Y-92270447D01*
X156403945Y-92300500D01*
X156403946Y-92300500D01*
X156596054Y-92300500D01*
X156596055Y-92300500D01*
X156785801Y-92270447D01*
X156968509Y-92211082D01*
X157139681Y-92123865D01*
X157295102Y-92010945D01*
X157430945Y-91875102D01*
X157543865Y-91719681D01*
X157631082Y-91548509D01*
X157690447Y-91365801D01*
X157720500Y-91176055D01*
X157720500Y-90983945D01*
X157690447Y-90794199D01*
X157631082Y-90611491D01*
X157543865Y-90440319D01*
X157430945Y-90284898D01*
X157295102Y-90149055D01*
X157139681Y-90036135D01*
X156968504Y-89948915D01*
X156903919Y-89927931D01*
X156846243Y-89888494D01*
X156819044Y-89824136D01*
X156830958Y-89755289D01*
X156878202Y-89703813D01*
X156903919Y-89692069D01*
X156968504Y-89671084D01*
X156968506Y-89671082D01*
X156968509Y-89671082D01*
X157139681Y-89583865D01*
X157295102Y-89470945D01*
X157430945Y-89335102D01*
X157543865Y-89179681D01*
X157631082Y-89008509D01*
X157690447Y-88825801D01*
X157720500Y-88636055D01*
X157720500Y-88443945D01*
X157690447Y-88254199D01*
X157631082Y-88071491D01*
X157543865Y-87900319D01*
X157430945Y-87744898D01*
X157295102Y-87609055D01*
X157139681Y-87496135D01*
X156968504Y-87408915D01*
X156903919Y-87387931D01*
X156846243Y-87348494D01*
X156819044Y-87284136D01*
X156830958Y-87215289D01*
X156878202Y-87163813D01*
X156903919Y-87152069D01*
X156968504Y-87131084D01*
X156968506Y-87131082D01*
X156968509Y-87131082D01*
X157139681Y-87043865D01*
X157295102Y-86930945D01*
X157430945Y-86795102D01*
X157543865Y-86639681D01*
X157631082Y-86468509D01*
X157690447Y-86285801D01*
X157720500Y-86096055D01*
X157720500Y-85903945D01*
X157690447Y-85714199D01*
X157631082Y-85531491D01*
X157543865Y-85360319D01*
X157430945Y-85204898D01*
X157295102Y-85069055D01*
X157139681Y-84956135D01*
X157093289Y-84932497D01*
X156968506Y-84868916D01*
X156785802Y-84809553D01*
X156690928Y-84794526D01*
X156596055Y-84779500D01*
X156403945Y-84779500D01*
X156340696Y-84789517D01*
X156214197Y-84809553D01*
X156031493Y-84868916D01*
X155860318Y-84956135D01*
X155773538Y-85019185D01*
X155704898Y-85069055D01*
X155704896Y-85069057D01*
X155704895Y-85069057D01*
X155569057Y-85204895D01*
X155569057Y-85204896D01*
X155569055Y-85204898D01*
X155548277Y-85233497D01*
X155456135Y-85360318D01*
X155368916Y-85531493D01*
X155309553Y-85714197D01*
X155300756Y-85769738D01*
X155279500Y-85903945D01*
X151500500Y-85903945D01*
X151500500Y-83421153D01*
X186699500Y-83421153D01*
X186699500Y-83578846D01*
X186730261Y-83733489D01*
X186730264Y-83733501D01*
X186790602Y-83879172D01*
X186790609Y-83879185D01*
X186878210Y-84010288D01*
X186878213Y-84010292D01*
X186989707Y-84121786D01*
X186989711Y-84121789D01*
X187120814Y-84209390D01*
X187120827Y-84209397D01*
X187266498Y-84269735D01*
X187266503Y-84269737D01*
X187331147Y-84282595D01*
X187421849Y-84300638D01*
X187483760Y-84333023D01*
X187485339Y-84334574D01*
X188214139Y-85063374D01*
X188214149Y-85063385D01*
X188218479Y-85067715D01*
X188218480Y-85067716D01*
X188330284Y-85179520D01*
X188381845Y-85209288D01*
X188417095Y-85229639D01*
X188417097Y-85229641D01*
X188455151Y-85251611D01*
X188467215Y-85258577D01*
X188619943Y-85299500D01*
X188778057Y-85299500D01*
X193875500Y-85299500D01*
X193942539Y-85319185D01*
X193988294Y-85371989D01*
X193999500Y-85423500D01*
X193999500Y-86047870D01*
X193999501Y-86047876D01*
X194005908Y-86107483D01*
X194056202Y-86242328D01*
X194056206Y-86242335D01*
X194142452Y-86357544D01*
X194142455Y-86357547D01*
X194257664Y-86443793D01*
X194257671Y-86443797D01*
X194392517Y-86494091D01*
X194392516Y-86494091D01*
X194399444Y-86494835D01*
X194452127Y-86500500D01*
X195547872Y-86500499D01*
X195607483Y-86494091D01*
X195742331Y-86443796D01*
X195857546Y-86357546D01*
X195943796Y-86242331D01*
X195994091Y-86107483D01*
X196000500Y-86047873D01*
X196000499Y-85423499D01*
X196020183Y-85356461D01*
X196072987Y-85310706D01*
X196124499Y-85299500D01*
X203221234Y-85299500D01*
X203288273Y-85319185D01*
X203290125Y-85320398D01*
X203421814Y-85408390D01*
X203421827Y-85408397D01*
X203567498Y-85468735D01*
X203567503Y-85468737D01*
X203722153Y-85499499D01*
X203722156Y-85499500D01*
X203722158Y-85499500D01*
X203879844Y-85499500D01*
X203879845Y-85499499D01*
X204034497Y-85468737D01*
X204180179Y-85408394D01*
X204311289Y-85320789D01*
X204422789Y-85209289D01*
X204510394Y-85078179D01*
X204514173Y-85069057D01*
X204570735Y-84932501D01*
X204570737Y-84932497D01*
X204601500Y-84777842D01*
X204601500Y-84620158D01*
X204601500Y-84620155D01*
X204601499Y-84620153D01*
X204575552Y-84489711D01*
X204570737Y-84465503D01*
X204570735Y-84465498D01*
X204510397Y-84319827D01*
X204510390Y-84319814D01*
X204422789Y-84188711D01*
X204422786Y-84188707D01*
X204336214Y-84102135D01*
X217149500Y-84102135D01*
X217149500Y-85897870D01*
X217149501Y-85897876D01*
X217155908Y-85957483D01*
X217206202Y-86092328D01*
X217206206Y-86092335D01*
X217292452Y-86207544D01*
X217292455Y-86207547D01*
X217407664Y-86293793D01*
X217407671Y-86293797D01*
X217542517Y-86344091D01*
X217542516Y-86344091D01*
X217549444Y-86344835D01*
X217602127Y-86350500D01*
X219397872Y-86350499D01*
X219457483Y-86344091D01*
X219592331Y-86293796D01*
X219707546Y-86207546D01*
X219793796Y-86092331D01*
X219842810Y-85960916D01*
X219884681Y-85904984D01*
X219950145Y-85880566D01*
X220018418Y-85895417D01*
X220046673Y-85916569D01*
X220160213Y-86030109D01*
X220332179Y-86155048D01*
X220332181Y-86155049D01*
X220332184Y-86155051D01*
X220521588Y-86251557D01*
X220723757Y-86317246D01*
X220933713Y-86350500D01*
X220933714Y-86350500D01*
X221146286Y-86350500D01*
X221146287Y-86350500D01*
X221356243Y-86317246D01*
X221558412Y-86251557D01*
X221747816Y-86155051D01*
X221834138Y-86092335D01*
X221919786Y-86030109D01*
X221919788Y-86030106D01*
X221919792Y-86030104D01*
X222070104Y-85879792D01*
X222070106Y-85879788D01*
X222070109Y-85879786D01*
X222179086Y-85729789D01*
X222195051Y-85707816D01*
X222291557Y-85518412D01*
X222357246Y-85316243D01*
X222390500Y-85106287D01*
X222390500Y-84893713D01*
X222357246Y-84683757D01*
X222291557Y-84481588D01*
X222195051Y-84292184D01*
X222195049Y-84292181D01*
X222195048Y-84292179D01*
X222070109Y-84120213D01*
X221919786Y-83969890D01*
X221747820Y-83844951D01*
X221558414Y-83748444D01*
X221558413Y-83748443D01*
X221558412Y-83748443D01*
X221356243Y-83682754D01*
X221356241Y-83682753D01*
X221356240Y-83682753D01*
X221194957Y-83657208D01*
X221146287Y-83649500D01*
X220933713Y-83649500D01*
X220885042Y-83657208D01*
X220723760Y-83682753D01*
X220641780Y-83709390D01*
X220567612Y-83733489D01*
X220521585Y-83748444D01*
X220332179Y-83844951D01*
X220160215Y-83969889D01*
X220046673Y-84083431D01*
X219985350Y-84116915D01*
X219915658Y-84111931D01*
X219859725Y-84070059D01*
X219842810Y-84039082D01*
X219793797Y-83907671D01*
X219793793Y-83907664D01*
X219707547Y-83792455D01*
X219707544Y-83792452D01*
X219592335Y-83706206D01*
X219592328Y-83706202D01*
X219457482Y-83655908D01*
X219457483Y-83655908D01*
X219397883Y-83649501D01*
X219397881Y-83649500D01*
X219397873Y-83649500D01*
X219397864Y-83649500D01*
X217602129Y-83649500D01*
X217602123Y-83649501D01*
X217542516Y-83655908D01*
X217407671Y-83706202D01*
X217407664Y-83706206D01*
X217292455Y-83792452D01*
X217292452Y-83792455D01*
X217206206Y-83907664D01*
X217206202Y-83907671D01*
X217155908Y-84042517D01*
X217149501Y-84102116D01*
X217149500Y-84102135D01*
X204336214Y-84102135D01*
X204311292Y-84077213D01*
X204311288Y-84077210D01*
X204180185Y-83989609D01*
X204180172Y-83989602D01*
X204034501Y-83929264D01*
X204034489Y-83929261D01*
X203879845Y-83898500D01*
X203879842Y-83898500D01*
X203722158Y-83898500D01*
X203722155Y-83898500D01*
X203567510Y-83929261D01*
X203567498Y-83929264D01*
X203421827Y-83989602D01*
X203421814Y-83989609D01*
X203290125Y-84077602D01*
X203223447Y-84098480D01*
X203221234Y-84098500D01*
X188999097Y-84098500D01*
X188932058Y-84078815D01*
X188911416Y-84062181D01*
X188334574Y-83485339D01*
X188301089Y-83424016D01*
X188300638Y-83421849D01*
X188269738Y-83266510D01*
X188269737Y-83266503D01*
X188256062Y-83233489D01*
X188209397Y-83120827D01*
X188209390Y-83120814D01*
X188121789Y-82989711D01*
X188121786Y-82989707D01*
X188010292Y-82878213D01*
X188010288Y-82878210D01*
X187879185Y-82790609D01*
X187879172Y-82790602D01*
X187733501Y-82730264D01*
X187733489Y-82730261D01*
X187578845Y-82699500D01*
X187578842Y-82699500D01*
X187421158Y-82699500D01*
X187421155Y-82699500D01*
X187266510Y-82730261D01*
X187266498Y-82730264D01*
X187120827Y-82790602D01*
X187120814Y-82790609D01*
X186989711Y-82878210D01*
X186989707Y-82878213D01*
X186878213Y-82989707D01*
X186878210Y-82989711D01*
X186790609Y-83120814D01*
X186790602Y-83120827D01*
X186730264Y-83266498D01*
X186730261Y-83266510D01*
X186699500Y-83421153D01*
X151500500Y-83421153D01*
X151500500Y-79421153D01*
X188699500Y-79421153D01*
X188699500Y-79578846D01*
X188730261Y-79733489D01*
X188730264Y-79733501D01*
X188790602Y-79879172D01*
X188790609Y-79879185D01*
X188878602Y-80010874D01*
X188899480Y-80077551D01*
X188899500Y-80079765D01*
X188899500Y-82420234D01*
X188879815Y-82487273D01*
X188878602Y-82489125D01*
X188790609Y-82620814D01*
X188790602Y-82620827D01*
X188730264Y-82766498D01*
X188730261Y-82766510D01*
X188699500Y-82921153D01*
X188699500Y-83078846D01*
X188730261Y-83233489D01*
X188730264Y-83233501D01*
X188790602Y-83379172D01*
X188790609Y-83379185D01*
X188878210Y-83510288D01*
X188878213Y-83510292D01*
X188989707Y-83621786D01*
X188989711Y-83621789D01*
X189120814Y-83709390D01*
X189120827Y-83709397D01*
X189266498Y-83769735D01*
X189266503Y-83769737D01*
X189421153Y-83800499D01*
X189421156Y-83800500D01*
X189421158Y-83800500D01*
X189578844Y-83800500D01*
X189578845Y-83800499D01*
X189733497Y-83769737D01*
X189879179Y-83709394D01*
X190010289Y-83621789D01*
X190121789Y-83510289D01*
X190209394Y-83379179D01*
X190269737Y-83233497D01*
X190300500Y-83078842D01*
X190300500Y-82921158D01*
X190300500Y-82921155D01*
X190300499Y-82921153D01*
X190274531Y-82790606D01*
X190269737Y-82766503D01*
X190269735Y-82766498D01*
X190209397Y-82620827D01*
X190209390Y-82620814D01*
X190121398Y-82489125D01*
X190100520Y-82422447D01*
X190100500Y-82420234D01*
X190100500Y-80079765D01*
X190120185Y-80012726D01*
X190121398Y-80010874D01*
X190209390Y-79879185D01*
X190209390Y-79879184D01*
X190209394Y-79879179D01*
X190269737Y-79733497D01*
X190300500Y-79578842D01*
X190300500Y-79421158D01*
X190300500Y-79421155D01*
X190300499Y-79421153D01*
X190269738Y-79266510D01*
X190269737Y-79266503D01*
X190269735Y-79266498D01*
X190209397Y-79120827D01*
X190209390Y-79120814D01*
X190121789Y-78989711D01*
X190121786Y-78989707D01*
X190010292Y-78878213D01*
X190010288Y-78878210D01*
X189879185Y-78790609D01*
X189879172Y-78790602D01*
X189733501Y-78730264D01*
X189733489Y-78730261D01*
X189578845Y-78699500D01*
X189578842Y-78699500D01*
X189421158Y-78699500D01*
X189421155Y-78699500D01*
X189266510Y-78730261D01*
X189266498Y-78730264D01*
X189120827Y-78790602D01*
X189120814Y-78790609D01*
X188989711Y-78878210D01*
X188989707Y-78878213D01*
X188878213Y-78989707D01*
X188878210Y-78989711D01*
X188790609Y-79120814D01*
X188790602Y-79120827D01*
X188730264Y-79266498D01*
X188730261Y-79266510D01*
X188699500Y-79421153D01*
X151500500Y-79421153D01*
X151500500Y-78421153D01*
X229199500Y-78421153D01*
X229199500Y-78578846D01*
X229230261Y-78733489D01*
X229230264Y-78733501D01*
X229290602Y-78879172D01*
X229290609Y-78879185D01*
X229378602Y-79010874D01*
X229399480Y-79077551D01*
X229399500Y-79079765D01*
X229399500Y-92913330D01*
X229399499Y-92913348D01*
X229399499Y-93079054D01*
X229399498Y-93079054D01*
X229399499Y-93079057D01*
X229440423Y-93231785D01*
X229440424Y-93231787D01*
X229440423Y-93231787D01*
X229444221Y-93238364D01*
X229444222Y-93238365D01*
X229519477Y-93368712D01*
X229519481Y-93368717D01*
X229638349Y-93487585D01*
X229638355Y-93487590D01*
X231665425Y-95514660D01*
X231698910Y-95575983D01*
X231699361Y-95578149D01*
X231730261Y-95733491D01*
X231730264Y-95733501D01*
X231790602Y-95879172D01*
X231790609Y-95879185D01*
X231878210Y-96010288D01*
X231878213Y-96010292D01*
X231989707Y-96121786D01*
X231989711Y-96121789D01*
X232120814Y-96209390D01*
X232120827Y-96209397D01*
X232266498Y-96269735D01*
X232266503Y-96269737D01*
X232421153Y-96300499D01*
X232421156Y-96300500D01*
X232421158Y-96300500D01*
X232578844Y-96300500D01*
X232578845Y-96300499D01*
X232733497Y-96269737D01*
X232879179Y-96209394D01*
X233010289Y-96121789D01*
X233121789Y-96010289D01*
X233209394Y-95879179D01*
X233269737Y-95733497D01*
X233300500Y-95578842D01*
X233300500Y-95421158D01*
X233300500Y-95421155D01*
X233300499Y-95421153D01*
X233269738Y-95266510D01*
X233269737Y-95266503D01*
X233269735Y-95266498D01*
X233209397Y-95120827D01*
X233209390Y-95120814D01*
X233121789Y-94989711D01*
X233121786Y-94989707D01*
X233010292Y-94878213D01*
X233010288Y-94878210D01*
X232879185Y-94790609D01*
X232879172Y-94790602D01*
X232733501Y-94730264D01*
X232733491Y-94730261D01*
X232578149Y-94699361D01*
X232516238Y-94666976D01*
X232514660Y-94665425D01*
X230636819Y-92787584D01*
X230603334Y-92726261D01*
X230600500Y-92699903D01*
X230600500Y-79079765D01*
X230620185Y-79012726D01*
X230621398Y-79010874D01*
X230709390Y-78879185D01*
X230709390Y-78879184D01*
X230709394Y-78879179D01*
X230769737Y-78733497D01*
X230800500Y-78578842D01*
X230800500Y-78421158D01*
X230800500Y-78421155D01*
X230800499Y-78421153D01*
X230769738Y-78266510D01*
X230769737Y-78266503D01*
X230769735Y-78266498D01*
X230709397Y-78120827D01*
X230709390Y-78120814D01*
X230621789Y-77989711D01*
X230621786Y-77989707D01*
X230510292Y-77878213D01*
X230510288Y-77878210D01*
X230379185Y-77790609D01*
X230379172Y-77790602D01*
X230233501Y-77730264D01*
X230233489Y-77730261D01*
X230078845Y-77699500D01*
X230078842Y-77699500D01*
X229921158Y-77699500D01*
X229921155Y-77699500D01*
X229766510Y-77730261D01*
X229766498Y-77730264D01*
X229620827Y-77790602D01*
X229620814Y-77790609D01*
X229489711Y-77878210D01*
X229489707Y-77878213D01*
X229378213Y-77989707D01*
X229378210Y-77989711D01*
X229290609Y-78120814D01*
X229290602Y-78120827D01*
X229230264Y-78266498D01*
X229230261Y-78266510D01*
X229199500Y-78421153D01*
X151500500Y-78421153D01*
X151500500Y-72450000D01*
X161872145Y-72450000D01*
X162934314Y-72450000D01*
X162929920Y-72454394D01*
X162877259Y-72545606D01*
X162850000Y-72647339D01*
X162850000Y-72752661D01*
X162877259Y-72854394D01*
X162929920Y-72945606D01*
X162934314Y-72950000D01*
X161872145Y-72950000D01*
X161884473Y-73027835D01*
X161884473Y-73027838D01*
X161952567Y-73237410D01*
X162052613Y-73433760D01*
X162182142Y-73612041D01*
X162337958Y-73767857D01*
X162516239Y-73897386D01*
X162712589Y-73997432D01*
X162922164Y-74065526D01*
X163139819Y-74100000D01*
X164100000Y-74100000D01*
X164100000Y-73100000D01*
X164600000Y-73100000D01*
X164600000Y-74100000D01*
X165560181Y-74100000D01*
X165777835Y-74065526D01*
X165987410Y-73997432D01*
X166183760Y-73897386D01*
X166362041Y-73767857D01*
X166517857Y-73612041D01*
X166647386Y-73433760D01*
X166653810Y-73421153D01*
X205699500Y-73421153D01*
X205699500Y-73578846D01*
X205730261Y-73733489D01*
X205730264Y-73733501D01*
X205790602Y-73879172D01*
X205790609Y-73879185D01*
X205878210Y-74010288D01*
X205878213Y-74010292D01*
X205989707Y-74121786D01*
X205989711Y-74121789D01*
X206120814Y-74209390D01*
X206120827Y-74209397D01*
X206266498Y-74269735D01*
X206266503Y-74269737D01*
X206421153Y-74300499D01*
X206421156Y-74300500D01*
X206421158Y-74300500D01*
X206578844Y-74300500D01*
X206578845Y-74300499D01*
X206733497Y-74269737D01*
X206879179Y-74209394D01*
X206879185Y-74209390D01*
X207010875Y-74121398D01*
X207077553Y-74100520D01*
X207079766Y-74100500D01*
X211199903Y-74100500D01*
X211266942Y-74120185D01*
X211287584Y-74136819D01*
X214165425Y-77014660D01*
X214198910Y-77075983D01*
X214199361Y-77078149D01*
X214230261Y-77233491D01*
X214230264Y-77233501D01*
X214290602Y-77379172D01*
X214290609Y-77379185D01*
X214378210Y-77510288D01*
X214378213Y-77510292D01*
X214489707Y-77621786D01*
X214489711Y-77621789D01*
X214620814Y-77709390D01*
X214620827Y-77709397D01*
X214766498Y-77769735D01*
X214766503Y-77769737D01*
X214921153Y-77800499D01*
X214921156Y-77800500D01*
X214921158Y-77800500D01*
X215078844Y-77800500D01*
X215078845Y-77800499D01*
X215233497Y-77769737D01*
X215379179Y-77709394D01*
X215510289Y-77621789D01*
X215621789Y-77510289D01*
X215709394Y-77379179D01*
X215769737Y-77233497D01*
X215800500Y-77078842D01*
X215800500Y-76921158D01*
X215800500Y-76921155D01*
X215800499Y-76921153D01*
X215769738Y-76766510D01*
X215769737Y-76766503D01*
X215769735Y-76766498D01*
X215709397Y-76620827D01*
X215709390Y-76620814D01*
X215621789Y-76489711D01*
X215621786Y-76489707D01*
X215510292Y-76378213D01*
X215510288Y-76378210D01*
X215379185Y-76290609D01*
X215379172Y-76290602D01*
X215233501Y-76230264D01*
X215233491Y-76230261D01*
X215078149Y-76199361D01*
X215016238Y-76166976D01*
X215014660Y-76165425D01*
X211987590Y-73138355D01*
X211987588Y-73138352D01*
X211868717Y-73019481D01*
X211868716Y-73019480D01*
X211781904Y-72969360D01*
X211781904Y-72969359D01*
X211781900Y-72969358D01*
X211731785Y-72940423D01*
X211579057Y-72899499D01*
X211420943Y-72899499D01*
X211413347Y-72899499D01*
X211413331Y-72899500D01*
X207079766Y-72899500D01*
X207012727Y-72879815D01*
X207010875Y-72878602D01*
X206879185Y-72790609D01*
X206879172Y-72790602D01*
X206733501Y-72730264D01*
X206733489Y-72730261D01*
X206578845Y-72699500D01*
X206578842Y-72699500D01*
X206421158Y-72699500D01*
X206421155Y-72699500D01*
X206266510Y-72730261D01*
X206266498Y-72730264D01*
X206120827Y-72790602D01*
X206120814Y-72790609D01*
X205989711Y-72878210D01*
X205989707Y-72878213D01*
X205878213Y-72989707D01*
X205878210Y-72989711D01*
X205790609Y-73120814D01*
X205790602Y-73120827D01*
X205730264Y-73266498D01*
X205730261Y-73266510D01*
X205699500Y-73421153D01*
X166653810Y-73421153D01*
X166685596Y-73358771D01*
X166747432Y-73237410D01*
X166815526Y-73027838D01*
X166815526Y-73027835D01*
X166827855Y-72950000D01*
X165765686Y-72950000D01*
X165770080Y-72945606D01*
X165822741Y-72854394D01*
X165850000Y-72752661D01*
X165850000Y-72647339D01*
X165822741Y-72545606D01*
X165770080Y-72454394D01*
X165765686Y-72450000D01*
X166827855Y-72450000D01*
X166815526Y-72372164D01*
X166815526Y-72372161D01*
X166747432Y-72162589D01*
X166647386Y-71966239D01*
X166517857Y-71787958D01*
X166362041Y-71632142D01*
X166247777Y-71549124D01*
X166247775Y-71549122D01*
X166183763Y-71502615D01*
X166084692Y-71452135D01*
X224499500Y-71452135D01*
X224499500Y-72547870D01*
X224499501Y-72547876D01*
X224505908Y-72607483D01*
X224556202Y-72742328D01*
X224556206Y-72742335D01*
X224642452Y-72857544D01*
X224642455Y-72857547D01*
X224757664Y-72943793D01*
X224757671Y-72943797D01*
X224892517Y-72994091D01*
X224892516Y-72994091D01*
X224899444Y-72994835D01*
X224952127Y-73000500D01*
X226047872Y-73000499D01*
X226107483Y-72994091D01*
X226242331Y-72943796D01*
X226357546Y-72857546D01*
X226443796Y-72742331D01*
X226494091Y-72607483D01*
X226500500Y-72547873D01*
X226500499Y-71452128D01*
X226494091Y-71392517D01*
X226459584Y-71300000D01*
X226443797Y-71257671D01*
X226443793Y-71257664D01*
X226357547Y-71142455D01*
X226357544Y-71142452D01*
X226242335Y-71056206D01*
X226242328Y-71056202D01*
X226107482Y-71005908D01*
X226107483Y-71005908D01*
X226047883Y-70999501D01*
X226047881Y-70999500D01*
X226047873Y-70999500D01*
X226047864Y-70999500D01*
X224952129Y-70999500D01*
X224952123Y-70999501D01*
X224892516Y-71005908D01*
X224757671Y-71056202D01*
X224757664Y-71056206D01*
X224642455Y-71142452D01*
X224642452Y-71142455D01*
X224556206Y-71257664D01*
X224556202Y-71257671D01*
X224505908Y-71392517D01*
X224504828Y-71402567D01*
X224499501Y-71452123D01*
X224499500Y-71452135D01*
X166084692Y-71452135D01*
X165987410Y-71402567D01*
X165777835Y-71334473D01*
X165560181Y-71300000D01*
X164600000Y-71300000D01*
X164600000Y-72300000D01*
X164100000Y-72300000D01*
X164100000Y-71300000D01*
X163139819Y-71300000D01*
X162922164Y-71334473D01*
X162712589Y-71402567D01*
X162516239Y-71502613D01*
X162337958Y-71632142D01*
X162182142Y-71787958D01*
X162052613Y-71966239D01*
X161952567Y-72162589D01*
X161884473Y-72372161D01*
X161884473Y-72372164D01*
X161872145Y-72450000D01*
X151500500Y-72450000D01*
X151500500Y-66689818D01*
X160150000Y-66689818D01*
X160150000Y-67650000D01*
X161150000Y-67650000D01*
X161150000Y-68150000D01*
X160150000Y-68150000D01*
X160150000Y-69110181D01*
X160184473Y-69327835D01*
X160252567Y-69537410D01*
X160352613Y-69733760D01*
X160482142Y-69912041D01*
X160637958Y-70067857D01*
X160816239Y-70197386D01*
X161012589Y-70297432D01*
X161222163Y-70365526D01*
X161299999Y-70377854D01*
X161300000Y-70377854D01*
X161300000Y-69315686D01*
X161304394Y-69320080D01*
X161395606Y-69372741D01*
X161497339Y-69400000D01*
X161602661Y-69400000D01*
X161704394Y-69372741D01*
X161795606Y-69320080D01*
X161800000Y-69315686D01*
X161800000Y-70377854D01*
X161877834Y-70365526D01*
X161877837Y-70365526D01*
X162087410Y-70297432D01*
X162283760Y-70197386D01*
X162462041Y-70067857D01*
X162617857Y-69912041D01*
X162747386Y-69733760D01*
X162847432Y-69537410D01*
X162915526Y-69327835D01*
X162950000Y-69110181D01*
X162950000Y-68150000D01*
X161950000Y-68150000D01*
X161950000Y-67650000D01*
X162950000Y-67650000D01*
X162950000Y-66689818D01*
X162915526Y-66472164D01*
X162847432Y-66262589D01*
X162747386Y-66066239D01*
X162617857Y-65887958D01*
X162462041Y-65732142D01*
X162351921Y-65652135D01*
X165949500Y-65652135D01*
X165949500Y-70147870D01*
X165949501Y-70147876D01*
X165955908Y-70207483D01*
X166006202Y-70342328D01*
X166006206Y-70342335D01*
X166092452Y-70457544D01*
X166092455Y-70457547D01*
X166207664Y-70543793D01*
X166207671Y-70543797D01*
X166342517Y-70594091D01*
X166342516Y-70594091D01*
X166349444Y-70594835D01*
X166402127Y-70600500D01*
X168297872Y-70600499D01*
X168357483Y-70594091D01*
X168492331Y-70543796D01*
X168607546Y-70457546D01*
X168693796Y-70342331D01*
X168744091Y-70207483D01*
X168750500Y-70147873D01*
X168750499Y-65652128D01*
X168744091Y-65592517D01*
X168710542Y-65502567D01*
X168693797Y-65457671D01*
X168693793Y-65457664D01*
X168607547Y-65342455D01*
X168607544Y-65342452D01*
X168492335Y-65256206D01*
X168492328Y-65256202D01*
X168357482Y-65205908D01*
X168357483Y-65205908D01*
X168297883Y-65199501D01*
X168297881Y-65199500D01*
X168297873Y-65199500D01*
X168297864Y-65199500D01*
X166402129Y-65199500D01*
X166402123Y-65199501D01*
X166342516Y-65205908D01*
X166207671Y-65256202D01*
X166207664Y-65256206D01*
X166092455Y-65342452D01*
X166092452Y-65342455D01*
X166006206Y-65457664D01*
X166006202Y-65457671D01*
X165955908Y-65592517D01*
X165949501Y-65652116D01*
X165949501Y-65652125D01*
X165949500Y-65652135D01*
X162351921Y-65652135D01*
X162283760Y-65602613D01*
X162087410Y-65502567D01*
X161877836Y-65434473D01*
X161800000Y-65422144D01*
X161800000Y-66484314D01*
X161795606Y-66479920D01*
X161704394Y-66427259D01*
X161602661Y-66400000D01*
X161497339Y-66400000D01*
X161395606Y-66427259D01*
X161304394Y-66479920D01*
X161300000Y-66484314D01*
X161300000Y-65422144D01*
X161222164Y-65434473D01*
X161222161Y-65434473D01*
X161012589Y-65502567D01*
X160816239Y-65602613D01*
X160637958Y-65732142D01*
X160482142Y-65887958D01*
X160352613Y-66066239D01*
X160252567Y-66262589D01*
X160184473Y-66472164D01*
X160150000Y-66689818D01*
X151500500Y-66689818D01*
X151500500Y-61385646D01*
X196499500Y-61385646D01*
X196499500Y-61614353D01*
X196535278Y-61840246D01*
X196535278Y-61840249D01*
X196605950Y-62057755D01*
X196605952Y-62057758D01*
X196709783Y-62261538D01*
X196844214Y-62446566D01*
X197005934Y-62608286D01*
X197090864Y-62669991D01*
X197133529Y-62725321D01*
X197139508Y-62794935D01*
X197106902Y-62856730D01*
X197090864Y-62870627D01*
X197006257Y-62932097D01*
X196844597Y-63093757D01*
X196710211Y-63278723D01*
X196606417Y-63482429D01*
X196535765Y-63699871D01*
X196521491Y-63790000D01*
X197509252Y-63790000D01*
X197487482Y-63827708D01*
X197450000Y-63967591D01*
X197450000Y-64112409D01*
X197487482Y-64252292D01*
X197509252Y-64290000D01*
X196521491Y-64290000D01*
X196535765Y-64380128D01*
X196606417Y-64597570D01*
X196710213Y-64801279D01*
X196843011Y-64984060D01*
X196866491Y-65049866D01*
X196850666Y-65117920D01*
X196800560Y-65166615D01*
X196786026Y-65173127D01*
X196757671Y-65183702D01*
X196757664Y-65183706D01*
X196642455Y-65269952D01*
X196642452Y-65269955D01*
X196556206Y-65385164D01*
X196556202Y-65385171D01*
X196505908Y-65520017D01*
X196499584Y-65578842D01*
X196499501Y-65579623D01*
X196499500Y-65579635D01*
X196499500Y-67580370D01*
X196499501Y-67580376D01*
X196505908Y-67639983D01*
X196556202Y-67774828D01*
X196556206Y-67774835D01*
X196642452Y-67890044D01*
X196642455Y-67890047D01*
X196757664Y-67976293D01*
X196757671Y-67976297D01*
X196892517Y-68026591D01*
X196892516Y-68026591D01*
X196899444Y-68027335D01*
X196952127Y-68033000D01*
X199047872Y-68032999D01*
X199107483Y-68026591D01*
X199242331Y-67976296D01*
X199357546Y-67890046D01*
X199443796Y-67774831D01*
X199494091Y-67639983D01*
X199500500Y-67580373D01*
X199500499Y-65579628D01*
X199494091Y-65520017D01*
X199492682Y-65516240D01*
X199471109Y-65458399D01*
X199471108Y-65458397D01*
X199470836Y-65457669D01*
X199457217Y-65421153D01*
X215199500Y-65421153D01*
X215199500Y-65578846D01*
X215230261Y-65733489D01*
X215230264Y-65733501D01*
X215290602Y-65879172D01*
X215290609Y-65879185D01*
X215378210Y-66010288D01*
X215378213Y-66010292D01*
X215489707Y-66121786D01*
X215489711Y-66121789D01*
X215620814Y-66209390D01*
X215620827Y-66209397D01*
X215749246Y-66262589D01*
X215766503Y-66269737D01*
X215921153Y-66300499D01*
X215921156Y-66300500D01*
X215921158Y-66300500D01*
X216078844Y-66300500D01*
X216078845Y-66300499D01*
X216233497Y-66269737D01*
X216379179Y-66209394D01*
X216510289Y-66121789D01*
X216621789Y-66010289D01*
X216709394Y-65879179D01*
X216769737Y-65733497D01*
X216797780Y-65592517D01*
X216800638Y-65578151D01*
X216833023Y-65516240D01*
X216834510Y-65514724D01*
X216980520Y-65368716D01*
X217059577Y-65231784D01*
X217100501Y-65079057D01*
X217100501Y-64920942D01*
X217100501Y-64913347D01*
X217100500Y-64913329D01*
X217100500Y-54331491D01*
X242999500Y-54331491D01*
X242999500Y-54668508D01*
X243037231Y-55003381D01*
X243037233Y-55003397D01*
X243112223Y-55331953D01*
X243112227Y-55331965D01*
X243223532Y-55650054D01*
X243369752Y-55953683D01*
X243369754Y-55953686D01*
X243549054Y-56239039D01*
X243660039Y-56378210D01*
X243748954Y-56489707D01*
X243759175Y-56502523D01*
X243997477Y-56740825D01*
X244260961Y-56950946D01*
X244546314Y-57130246D01*
X244849949Y-57276469D01*
X245088848Y-57360063D01*
X245168034Y-57387772D01*
X245168046Y-57387776D01*
X245496606Y-57462767D01*
X245831492Y-57500499D01*
X245831493Y-57500500D01*
X245831496Y-57500500D01*
X246168507Y-57500500D01*
X246168507Y-57500499D01*
X246503394Y-57462767D01*
X246831954Y-57387776D01*
X247150051Y-57276469D01*
X247453686Y-57130246D01*
X247739039Y-56950946D01*
X248002523Y-56740825D01*
X248240825Y-56502523D01*
X248450946Y-56239039D01*
X248630246Y-55953686D01*
X248776469Y-55650051D01*
X248887776Y-55331954D01*
X248962767Y-55003394D01*
X249000500Y-54668504D01*
X249000500Y-54331496D01*
X248962767Y-53996606D01*
X248887776Y-53668046D01*
X248776469Y-53349949D01*
X248630246Y-53046314D01*
X248450946Y-52760961D01*
X248240825Y-52497477D01*
X248002523Y-52259175D01*
X248000940Y-52257913D01*
X247856159Y-52142454D01*
X247739039Y-52049054D01*
X247453686Y-51869754D01*
X247453683Y-51869752D01*
X247150054Y-51723532D01*
X246831965Y-51612227D01*
X246831953Y-51612223D01*
X246503397Y-51537233D01*
X246503381Y-51537231D01*
X246168508Y-51499500D01*
X246168504Y-51499500D01*
X245831496Y-51499500D01*
X245831491Y-51499500D01*
X245496618Y-51537231D01*
X245496602Y-51537233D01*
X245168046Y-51612223D01*
X245168034Y-51612227D01*
X244849945Y-51723532D01*
X244546316Y-51869752D01*
X244260962Y-52049053D01*
X243997477Y-52259174D01*
X243759174Y-52497477D01*
X243549053Y-52760962D01*
X243369752Y-53046316D01*
X243223532Y-53349945D01*
X243112227Y-53668034D01*
X243112223Y-53668046D01*
X243037233Y-53996602D01*
X243037231Y-53996618D01*
X242999500Y-54331491D01*
X217100500Y-54331491D01*
X217100500Y-54082790D01*
X217120185Y-54015751D01*
X217172989Y-53969996D01*
X217181146Y-53966616D01*
X217242331Y-53943796D01*
X217357546Y-53857546D01*
X217443796Y-53742331D01*
X217494091Y-53607483D01*
X217500500Y-53547873D01*
X217500499Y-52452128D01*
X217494091Y-52392517D01*
X217485600Y-52369752D01*
X217443797Y-52257671D01*
X217443793Y-52257664D01*
X217357547Y-52142455D01*
X217357544Y-52142452D01*
X217242335Y-52056206D01*
X217242328Y-52056202D01*
X217107482Y-52005908D01*
X217107483Y-52005908D01*
X217047883Y-51999501D01*
X217047881Y-51999500D01*
X217047873Y-51999500D01*
X217047864Y-51999500D01*
X215952129Y-51999500D01*
X215952123Y-51999501D01*
X215892516Y-52005908D01*
X215757671Y-52056202D01*
X215757664Y-52056206D01*
X215642455Y-52142452D01*
X215642452Y-52142455D01*
X215556206Y-52257664D01*
X215556202Y-52257671D01*
X215505908Y-52392517D01*
X215499501Y-52452116D01*
X215499501Y-52452123D01*
X215499500Y-52452135D01*
X215499500Y-53547870D01*
X215499501Y-53547876D01*
X215505908Y-53607483D01*
X215556202Y-53742328D01*
X215556206Y-53742335D01*
X215642452Y-53857544D01*
X215642455Y-53857547D01*
X215757664Y-53943793D01*
X215757669Y-53943796D01*
X215818833Y-53966608D01*
X215874766Y-54008478D01*
X215899184Y-54073942D01*
X215899500Y-54082790D01*
X215899500Y-64602044D01*
X215879815Y-64669083D01*
X215827011Y-64714838D01*
X215799691Y-64723661D01*
X215766510Y-64730261D01*
X215766498Y-64730264D01*
X215620827Y-64790602D01*
X215620814Y-64790609D01*
X215489711Y-64878210D01*
X215489707Y-64878213D01*
X215378213Y-64989707D01*
X215378210Y-64989711D01*
X215290609Y-65120814D01*
X215290602Y-65120827D01*
X215230264Y-65266498D01*
X215230261Y-65266510D01*
X215199500Y-65421153D01*
X199457217Y-65421153D01*
X199443798Y-65385173D01*
X199443793Y-65385164D01*
X199357547Y-65269955D01*
X199357544Y-65269952D01*
X199242335Y-65183706D01*
X199242326Y-65183701D01*
X199213974Y-65173127D01*
X199158040Y-65131257D01*
X199133622Y-65065792D01*
X199148473Y-64997519D01*
X199156988Y-64984059D01*
X199289788Y-64801276D01*
X199393582Y-64597570D01*
X199464234Y-64380128D01*
X199478509Y-64290000D01*
X198490748Y-64290000D01*
X198512518Y-64252292D01*
X198550000Y-64112409D01*
X198550000Y-63967591D01*
X198512518Y-63827708D01*
X198490748Y-63790000D01*
X199478509Y-63790000D01*
X199464234Y-63699871D01*
X199393582Y-63482429D01*
X199289788Y-63278723D01*
X199155402Y-63093757D01*
X198993742Y-62932097D01*
X198909135Y-62870626D01*
X198866470Y-62815296D01*
X198860491Y-62745682D01*
X198893097Y-62683887D01*
X198909125Y-62669999D01*
X198994066Y-62608286D01*
X199155786Y-62446566D01*
X199290217Y-62261538D01*
X199394048Y-62057758D01*
X199464722Y-61840245D01*
X199500500Y-61614354D01*
X199500500Y-61385646D01*
X199464722Y-61159755D01*
X199464721Y-61159751D01*
X199464721Y-61159750D01*
X199394049Y-60942244D01*
X199290216Y-60738461D01*
X199155786Y-60553434D01*
X198994066Y-60391714D01*
X198809038Y-60257283D01*
X198605255Y-60153450D01*
X198387748Y-60082778D01*
X198218326Y-60055944D01*
X198161854Y-60047000D01*
X197838146Y-60047000D01*
X197762849Y-60058926D01*
X197612253Y-60082778D01*
X197612250Y-60082778D01*
X197394744Y-60153450D01*
X197190961Y-60257283D01*
X197085396Y-60333980D01*
X197005934Y-60391714D01*
X197005932Y-60391716D01*
X197005931Y-60391716D01*
X196844216Y-60553431D01*
X196844216Y-60553432D01*
X196844214Y-60553434D01*
X196786480Y-60632896D01*
X196709783Y-60738461D01*
X196605950Y-60942244D01*
X196535278Y-61159750D01*
X196535278Y-61159753D01*
X196499500Y-61385646D01*
X151500500Y-61385646D01*
X151500500Y-54831491D01*
X151999500Y-54831491D01*
X151999500Y-55168508D01*
X152037231Y-55503381D01*
X152037233Y-55503397D01*
X152112223Y-55831953D01*
X152112227Y-55831965D01*
X152223532Y-56150054D01*
X152369752Y-56453683D01*
X152369754Y-56453686D01*
X152549054Y-56739039D01*
X152759175Y-57002523D01*
X152997477Y-57240825D01*
X153260961Y-57450946D01*
X153546314Y-57630246D01*
X153849949Y-57776469D01*
X154088848Y-57860063D01*
X154168034Y-57887772D01*
X154168046Y-57887776D01*
X154496606Y-57962767D01*
X154831492Y-58000499D01*
X154831493Y-58000500D01*
X154831496Y-58000500D01*
X155168507Y-58000500D01*
X155168507Y-58000499D01*
X155503394Y-57962767D01*
X155831954Y-57887776D01*
X156150051Y-57776469D01*
X156453686Y-57630246D01*
X156739039Y-57450946D01*
X157002523Y-57240825D01*
X157240825Y-57002523D01*
X157450946Y-56739039D01*
X157630246Y-56453686D01*
X157776469Y-56150051D01*
X157887776Y-55831954D01*
X157962767Y-55503394D01*
X158000500Y-55168504D01*
X158000500Y-54831496D01*
X157962767Y-54496606D01*
X157887776Y-54168046D01*
X157776469Y-53849949D01*
X157630983Y-53547844D01*
X187500000Y-53547844D01*
X187506401Y-53607372D01*
X187506403Y-53607379D01*
X187556645Y-53742086D01*
X187556649Y-53742093D01*
X187642809Y-53857187D01*
X187642812Y-53857190D01*
X187757906Y-53943350D01*
X187757913Y-53943354D01*
X187892620Y-53993596D01*
X187892627Y-53993598D01*
X187952155Y-53999999D01*
X187952172Y-54000000D01*
X188250000Y-54000000D01*
X188750000Y-54000000D01*
X189047828Y-54000000D01*
X189047844Y-53999999D01*
X189107372Y-53993598D01*
X189107379Y-53993596D01*
X189242086Y-53943354D01*
X189242093Y-53943350D01*
X189357187Y-53857190D01*
X189357190Y-53857187D01*
X189443350Y-53742093D01*
X189443354Y-53742086D01*
X189493596Y-53607379D01*
X189493598Y-53607372D01*
X189499999Y-53547844D01*
X189500000Y-53547827D01*
X189500000Y-53250000D01*
X188750000Y-53250000D01*
X188750000Y-54000000D01*
X188250000Y-54000000D01*
X188250000Y-53250000D01*
X187500000Y-53250000D01*
X187500000Y-53547844D01*
X157630983Y-53547844D01*
X157630246Y-53546314D01*
X157450946Y-53260961D01*
X157240825Y-52997477D01*
X157200561Y-52957213D01*
X188175000Y-52957213D01*
X188175000Y-53042787D01*
X188197149Y-53125445D01*
X188239936Y-53199554D01*
X188300446Y-53260064D01*
X188374555Y-53302851D01*
X188457213Y-53325000D01*
X188542787Y-53325000D01*
X188625445Y-53302851D01*
X188699554Y-53260064D01*
X188760064Y-53199554D01*
X188802851Y-53125445D01*
X188825000Y-53042787D01*
X188825000Y-52957213D01*
X188802851Y-52874555D01*
X188760064Y-52800446D01*
X188709618Y-52750000D01*
X188750000Y-52750000D01*
X189500000Y-52750000D01*
X189500000Y-52452164D01*
X189499997Y-52452135D01*
X196499500Y-52452135D01*
X196499500Y-53547870D01*
X196499501Y-53547876D01*
X196505908Y-53607483D01*
X196556202Y-53742328D01*
X196556206Y-53742335D01*
X196642452Y-53857544D01*
X196642455Y-53857547D01*
X196757664Y-53943793D01*
X196757671Y-53943797D01*
X196892517Y-53994091D01*
X196892516Y-53994091D01*
X196899444Y-53994835D01*
X196952127Y-54000500D01*
X198047872Y-54000499D01*
X198107483Y-53994091D01*
X198242331Y-53943796D01*
X198357546Y-53857546D01*
X198443796Y-53742331D01*
X198494091Y-53607483D01*
X198500500Y-53547873D01*
X198500499Y-52452128D01*
X198494091Y-52392517D01*
X198485600Y-52369752D01*
X198443797Y-52257671D01*
X198443793Y-52257664D01*
X198357547Y-52142455D01*
X198357544Y-52142452D01*
X198242335Y-52056206D01*
X198242328Y-52056202D01*
X198107482Y-52005908D01*
X198107483Y-52005908D01*
X198047883Y-51999501D01*
X198047881Y-51999500D01*
X198047873Y-51999500D01*
X198047864Y-51999500D01*
X196952129Y-51999500D01*
X196952123Y-51999501D01*
X196892516Y-52005908D01*
X196757671Y-52056202D01*
X196757664Y-52056206D01*
X196642455Y-52142452D01*
X196642452Y-52142455D01*
X196556206Y-52257664D01*
X196556202Y-52257671D01*
X196505908Y-52392517D01*
X196499501Y-52452116D01*
X196499501Y-52452123D01*
X196499500Y-52452135D01*
X189499997Y-52452135D01*
X189493598Y-52392627D01*
X189493596Y-52392620D01*
X189443354Y-52257913D01*
X189443350Y-52257906D01*
X189357190Y-52142812D01*
X189357187Y-52142809D01*
X189242093Y-52056649D01*
X189242086Y-52056645D01*
X189107379Y-52006403D01*
X189107372Y-52006401D01*
X189047844Y-52000000D01*
X188750000Y-52000000D01*
X188750000Y-52750000D01*
X188709618Y-52750000D01*
X188699554Y-52739936D01*
X188625445Y-52697149D01*
X188542787Y-52675000D01*
X188457213Y-52675000D01*
X188374555Y-52697149D01*
X188300446Y-52739936D01*
X188239936Y-52800446D01*
X188197149Y-52874555D01*
X188175000Y-52957213D01*
X157200561Y-52957213D01*
X157002523Y-52759175D01*
X156739039Y-52549054D01*
X156584826Y-52452155D01*
X187500000Y-52452155D01*
X187500000Y-52750000D01*
X188250000Y-52750000D01*
X188250000Y-52000000D01*
X187952155Y-52000000D01*
X187892627Y-52006401D01*
X187892620Y-52006403D01*
X187757913Y-52056645D01*
X187757906Y-52056649D01*
X187642812Y-52142809D01*
X187642809Y-52142812D01*
X187556649Y-52257906D01*
X187556645Y-52257913D01*
X187506403Y-52392620D01*
X187506401Y-52392627D01*
X187500000Y-52452155D01*
X156584826Y-52452155D01*
X156453686Y-52369754D01*
X156453683Y-52369752D01*
X156150054Y-52223532D01*
X155831965Y-52112227D01*
X155831953Y-52112223D01*
X155503397Y-52037233D01*
X155503381Y-52037231D01*
X155168508Y-51999500D01*
X155168504Y-51999500D01*
X154831496Y-51999500D01*
X154831491Y-51999500D01*
X154496618Y-52037231D01*
X154496602Y-52037233D01*
X154168046Y-52112223D01*
X154168034Y-52112227D01*
X153849945Y-52223532D01*
X153546316Y-52369752D01*
X153260962Y-52549053D01*
X152997477Y-52759174D01*
X152759174Y-52997477D01*
X152549053Y-53260962D01*
X152369752Y-53546316D01*
X152223532Y-53849945D01*
X152112227Y-54168034D01*
X152112223Y-54168046D01*
X152037233Y-54496602D01*
X152037231Y-54496618D01*
X151999500Y-54831491D01*
X151500500Y-54831491D01*
X151500500Y-50124500D01*
X151520185Y-50057461D01*
X151572989Y-50011706D01*
X151624500Y-50000500D01*
X250375500Y-50000500D01*
X250442539Y-50020185D01*
G37*
%TD.AperFunction*%
%TD*%
M02*
